<svg version="1.1" xmlns="http://www.w3.org/2000/svg" xmlns:xlink="http://www.w3.org/1999/xlink" width="495.8" height="589.4"><defs><linearGradient id="qObLQvEruoZN" x1="576.5px" x2="1129.0000007152557px" y1="433.00000071525574px" y2="400px" gradientUnits="userSpaceOnUse"><stop offset="0" stop-color="rgb(255,193,7)" stop-opacity="1"/><stop offset="1" stop-color="rgb(211,211,211)" stop-opacity="1"/></linearGradient><linearGradient id="mWlIgfTGIgdP" x1="576.5px" x2="1129.0000007152557px" y1="566.0000014305115px" y2="728.2000007152558px" gradientUnits="userSpaceOnUse"><stop offset="0" stop-color="rgb(255,193,7)" stop-opacity="1"/><stop offset="1" stop-color="rgb(211,211,211)" stop-opacity="1"/></linearGradient><linearGradient id="VLZqSEpwQLmr" x1="1403.0000007152557px" x2="300px" y1="767.2000007152558px" y2="1713.9000035762788px" gradientUnits="userSpaceOnUse"><stop offset="0" stop-color="rgb(211,211,211)" stop-opacity="1"/><stop offset="1" stop-color="rgb(29,122,218)" stop-opacity="1"/></linearGradient><linearGradient id="lTQonVxXZEQt" x1="1403.0000007152557px" x2="300px" y1="767.2000007152558px" y2="1580.900002861023px" gradientUnits="userSpaceOnUse"><stop offset="0" stop-color="rgb(211,211,211)" stop-opacity="1"/><stop offset="1" stop-color="rgb(29,122,218)" stop-opacity="1"/></linearGradient><linearGradient id="uaNtOwCvznCE" x1="1403.0000007152557px" x2="300px" y1="767.2000007152558px" y2="1979.9000050067903px" gradientUnits="userSpaceOnUse"><stop offset="0" stop-color="rgb(211,211,211)" stop-opacity="1"/><stop offset="1" stop-color="rgb(29,122,218)" stop-opacity="1"/></linearGradient><linearGradient id="SeeCCiTsQVoG" x1="1403.0000007152557px" x2="300px" y1="767.2000007152558px" y2="2511.900007867813px" gradientUnits="userSpaceOnUse"><stop offset="0" stop-color="rgb(211,211,211)" stop-opacity="1"/><stop offset="1" stop-color="rgb(29,122,218)" stop-opacity="1"/></linearGradient><linearGradient id="rqfkXdmQuMDh" x1="1129.0000007152557px" x2="576.5px" y1="728.2000007152558px" y2="1356.4000014305116px" gradientUnits="userSpaceOnUse"><stop offset="0" stop-color="rgb(211,211,211)" stop-opacity="1"/><stop offset="1" stop-color="rgb(29,122,218)" stop-opacity="1"/></linearGradient><linearGradient id="KHzuCydqLXgU" x1="1403.0000007152557px" x2="300px" y1="767.2000007152558px" y2="1846.9000042915345px" gradientUnits="userSpaceOnUse"><stop offset="0" stop-color="rgb(211,211,211)" stop-opacity="1"/><stop offset="1" stop-color="rgb(29,122,218)" stop-opacity="1"/></linearGradient><linearGradient id="PhDnqEnTZUDz" x1="1403.0000007152557px" x2="300px" y1="767.2000007152558px" y2="2112.900005722046px" gradientUnits="userSpaceOnUse"><stop offset="0" stop-color="rgb(211,211,211)" stop-opacity="1"/><stop offset="1" stop-color="rgb(29,122,218)" stop-opacity="1"/></linearGradient><linearGradient id="XhrTrKBEkdwk" x1="1403.0000007152557px" x2="300px" y1="767.2000007152558px" y2="2245.9000064373017px" gradientUnits="userSpaceOnUse"><stop offset="0" stop-color="rgb(211,211,211)" stop-opacity="1"/><stop offset="1" stop-color="rgb(29,122,218)" stop-opacity="1"/></linearGradient><linearGradient id="cHXZKzMVqPXU" x1="1403.0000007152557px" x2="300px" y1="439px" y2="2378.9000071525575px" gradientUnits="userSpaceOnUse"><stop offset="0" stop-color="rgb(211,211,211)" stop-opacity="1"/><stop offset="1" stop-color="rgb(29,122,218)" stop-opacity="1"/></linearGradient><linearGradient id="AUVikOfRzauT" x1="1403.0000007152557px" x2="1403.0000007152557px" y1="439px" y2="689.2000007152558px" gradientUnits="userSpaceOnUse"><stop offset="0" stop-color="rgb(211,211,211)" stop-opacity="1"/><stop offset="1" stop-color="rgb(211,211,211)" stop-opacity="1"/></linearGradient></defs><g transform="translate(87.60000000000001,9.5) scale(0.2,0.2)"><path fill="rgb(244,236,255)" stroke="rgb(255,255,255)" paint-order="fill stroke markers" d=" M 801.0000003576279 -45.5 L 2030.0000007152557 -45.5 L 2030.0000007152557 -45.5 A 8 8 0 0 1 2038.0000007152557 -37.5 L 2038.0000007152557 2889.400007867813 L 2038.0000007152557 2889.400007867813 A 8 8 0 0 1 2030.0000007152557 2897.400007867813 L -428 2897.400007867813 L -428 2897.400007867813 A 8 8 0 0 1 -436 2889.400007867813 L -436 -37.5 L -436 -37.5 A 8 8 0 0 1 -428 -45.5 L 801.0000003576279 -45.5 Z" fill-opacity="1" stroke-opacity="1" stroke-miterlimit="10" stroke-width="2"/><text fill="rgb(0,0,0)" stroke="none" font-family="Avenir, Helvetica, Arial, sans-serif" font-size="32px" font-style="normal" font-weight="bold" text-decoration="normal" x="801.0000003576279" y="29.5" text-anchor="middle" dominant-baseline="text-after-edge" fill-opacity="1">.</text><path fill="rgb(255,255,255)" stroke="rgb(211,211,211)" paint-order="fill stroke markers" d=" M 300 157.5 L 669.5 157.5 L 669.5 157.5 A 8 8 0 0 1 677.5 165.5 L 677.5 833.5000021457672 L 677.5 833.5000021457672 A 8 8 0 0 1 669.5 841.5000021457672 L -69.5 841.5000021457672 L -69.5 841.5000021457672 A 8 8 0 0 1 -77.5 833.5000021457672 L -77.5 165.5 L -77.5 165.5 A 8 8 0 0 1 -69.5 157.5 L 300 157.5 Z" fill-opacity="1" stroke-opacity="1" stroke-miterlimit="10"/><text fill="rgb(0,0,0)" stroke="none" font-family="Avenir, Helvetica, Arial, sans-serif" font-size="32px" font-style="normal" font-weight="bold" text-decoration="normal" x="300" y="232.5" text-anchor="middle" dominant-baseline="text-after-edge" fill-opacity="1">outputs.tf</text><path fill="rgb(255,255,255)" stroke="rgb(211,211,211)" paint-order="fill stroke markers" d=" M 300 1213.9000014305116 L 826.5 1213.9000014305116 L 826.5 1213.9000014305116 A 8 8 0 0 1 834.5 1221.9000014305116 L 834.5 2687.900007867813 L 834.5 2687.900007867813 A 8 8 0 0 1 826.5 2695.900007867813 L -226.5 2695.900007867813 L -226.5 2695.900007867813 A 8 8 0 0 1 -234.5 2687.900007867813 L -234.5 1221.9000014305116 L -234.5 1221.9000014305116 A 8 8 0 0 1 -226.5 1213.9000014305116 L 300 1213.9000014305116 Z" fill-opacity="1" stroke-opacity="1" stroke-miterlimit="10"/><text fill="rgb(0,0,0)" stroke="none" font-family="Avenir, Helvetica, Arial, sans-serif" font-size="32px" font-style="normal" font-weight="bold" text-decoration="normal" x="300" y="1288.9000014305116" text-anchor="middle" dominant-baseline="text-after-edge" fill-opacity="1">variables.tf</text><path fill="rgb(255,255,255)" stroke="rgb(211,211,211)" paint-order="fill stroke markers" d=" M 1403.0000007152557 156 L 1828.5000007152557 156 L 1828.5000007152557 156 A 8 8 0 0 1 1836.5000007152557 164 L 1836.5000007152557 918.7000007152558 L 1836.5000007152557 918.7000007152558 A 8 8 0 0 1 1828.5000007152557 926.7000007152558 L 977.5000007152557 926.7000007152558 L 977.5000007152557 926.7000007152558 A 8 8 0 0 1 969.5000007152557 918.7000007152558 L 969.5000007152557 164 L 969.5000007152557 164 A 8 8 0 0 1 977.5000007152557 156 L 1403.0000007152557 156 Z" fill-opacity="1" stroke-opacity="1" stroke-miterlimit="10"/><text fill="rgb(0,0,0)" stroke="none" font-family="Avenir, Helvetica, Arial, sans-serif" font-size="32px" font-style="normal" font-weight="bold" text-decoration="normal" x="1403.0000007152557" y="231" text-anchor="middle" dominant-baseline="text-after-edge" fill-opacity="1">main.tf</text><path fill="rgb(255,255,255)" stroke="rgb(0,0,0)" paint-order="fill stroke markers" d=" M 1403.0000007152557 305 L 1725.0000007152557 305 L 1725.0000007152557 305 A 8 8 0 0 1 1733.0000007152557 313 L 1733.0000007152557 487 L 1733.0000007152557 487 A 8 8 0 0 1 1725.0000007152557 495 L 1081.0000007152557 495 L 1081.0000007152557 495 A 8 8 0 0 1 1073.0000007152557 487 L 1073.0000007152557 313 L 1073.0000007152557 313 A 8 8 0 0 1 1081.0000007152557 305 L 1403.0000007152557 305 Z" fill-opacity="1" stroke-opacity="1" stroke-miterlimit="10" stroke-width="5"/><rect fill="rgb(255,255,255)" stroke="none" x="1197.5000007152557" y="256" width="411" height="96" fill-opacity="1"/><text fill="rgb(0,0,0)" stroke="none" font-family="Avenir, Helvetica, Arial, sans-serif" font-size="32px" font-style="normal" font-weight="bold" text-decoration="normal" x="1403.0000007152557" y="320" text-anchor="middle" dominant-baseline="text-after-edge" fill-opacity="1">tfe_organization_token</text><path fill="rgb(255,255,255)" stroke="rgb(0,0,0)" paint-order="fill stroke markers" d=" M 1403.0000007152557 633.2000007152558 L 1725.0000007152557 633.2000007152558 L 1725.0000007152557 633.2000007152558 A 8 8 0 0 1 1733.0000007152557 641.2000007152558 L 1733.0000007152557 815.2000007152558 L 1733.0000007152557 815.2000007152558 A 8 8 0 0 1 1725.0000007152557 823.2000007152558 L 1081.0000007152557 823.2000007152558 L 1081.0000007152557 823.2000007152558 A 8 8 0 0 1 1073.0000007152557 815.2000007152558 L 1073.0000007152557 641.2000007152558 L 1073.0000007152557 641.2000007152558 A 8 8 0 0 1 1081.0000007152557 633.2000007152558 L 1403.0000007152557 633.2000007152558 Z" fill-opacity="1" stroke-opacity="1" stroke-miterlimit="10" stroke-width="5"/><rect fill="rgb(255,255,255)" stroke="none" x="1248.5000007152557" y="584.2000007152558" width="309" height="96" fill-opacity="1"/><text fill="rgb(0,0,0)" stroke="none" font-family="Avenir, Helvetica, Arial, sans-serif" font-size="32px" font-style="normal" font-weight="bold" text-decoration="normal" x="1403.0000007152557" y="648.2000007152558" text-anchor="middle" dominant-baseline="text-after-edge" fill-opacity="1">tfe_organization</text><path fill="none" stroke="url(#qObLQvEruoZN)" paint-order="fill stroke markers" d=" M 576.5 433.00000071525574 L 852.7500003576279 433.00000071525574 L 852.7500003576279 400 L 1129.0000007152557 400" stroke-linejoin="round" stroke-miterlimit="10" stroke-width="10"/><path fill="none" stroke="url(#mWlIgfTGIgdP)" paint-order="fill stroke markers" d=" M 576.5 566.0000014305115 L 852.7500003576279 566.0000014305115 L 852.7500003576279 728.2000007152558 L 1129.0000007152557 728.2000007152558" stroke-linejoin="round" stroke-miterlimit="10" stroke-width="10"/><path fill="none" stroke="url(#VLZqSEpwQLmr)" paint-order="fill stroke markers" d=" M 1403.0000007152557 767.2000007152558 L 1403.0000007152557 1240.5500021457674 L 300 1240.5500021457674 L 300 1713.9000035762788" stroke-linejoin="round" stroke-miterlimit="10" stroke-width="10"/><path fill="none" stroke="url(#lTQonVxXZEQt)" paint-order="fill stroke markers" d=" M 1403.0000007152557 767.2000007152558 L 1403.0000007152557 1174.0500017881395 L 300 1174.0500017881395 L 300 1580.900002861023" stroke-linejoin="round" stroke-miterlimit="10" stroke-width="10"/><path fill="none" stroke="url(#uaNtOwCvznCE)" paint-order="fill stroke markers" d=" M 1403.0000007152557 767.2000007152558 L 1403.0000007152557 1373.5500028610231 L 300 1373.5500028610231 L 300 1979.9000050067903" stroke-linejoin="round" stroke-miterlimit="10" stroke-width="10"/><path fill="none" stroke="url(#SeeCCiTsQVoG)" paint-order="fill stroke markers" d=" M 1403.0000007152557 767.2000007152558 L 1403.0000007152557 1639.5500042915346 L 300 1639.5500042915346 L 300 2511.900007867813" stroke-linejoin="round" stroke-miterlimit="10" stroke-width="10"/><path fill="none" stroke="url(#rqfkXdmQuMDh)" paint-order="fill stroke markers" d=" M 1129.0000007152557 728.2000007152558 L 852.7500003576279 728.2000007152558 L 852.7500003576279 1356.4000014305116 L 576.5 1356.4000014305116" stroke-linejoin="round" stroke-miterlimit="10" stroke-width="10"/><path fill="none" stroke="url(#KHzuCydqLXgU)" paint-order="fill stroke markers" d=" M 1403.0000007152557 767.2000007152558 L 1403.0000007152557 1307.0500025033953 L 300 1307.0500025033953 L 300 1846.9000042915345" stroke-linejoin="round" stroke-miterlimit="10" stroke-width="10"/><path fill="none" stroke="url(#PhDnqEnTZUDz)" paint-order="fill stroke markers" d=" M 1403.0000007152557 767.2000007152558 L 1403.0000007152557 1440.050003218651 L 300 1440.050003218651 L 300 2112.900005722046" stroke-linejoin="round" stroke-miterlimit="10" stroke-width="10"/><path fill="none" stroke="url(#XhrTrKBEkdwk)" paint-order="fill stroke markers" d=" M 1403.0000007152557 767.2000007152558 L 1403.0000007152557 1506.5500035762789 L 300 1506.5500035762789 L 300 2245.9000064373017" stroke-linejoin="round" stroke-miterlimit="10" stroke-width="10"/><path fill="none" stroke="url(#cHXZKzMVqPXU)" paint-order="fill stroke markers" d=" M 1403.0000007152557 439 L 1403.0000007152557 1408.9500035762787 L 300 1408.9500035762787 L 300 2378.9000071525575" stroke-linejoin="round" stroke-miterlimit="10" stroke-width="10"/><path fill="none" stroke="url(#AUVikOfRzauT)" paint-order="fill stroke markers" d=" M 1403.0000007152557 439 L 1403.0000007152557 564.1000003576279 L 1403.0000007152557 564.1000003576279 L 1403.0000007152557 689.2000007152558" stroke-linejoin="round" stroke-miterlimit="10" stroke-width="10"/><path fill="rgb(255,247,224)" stroke="rgb(255,193,7)" paint-order="fill stroke markers" d=" M 300 261 L 566 261 L 566 261 A 8 8 0 0 1 574 269 L 574 331 L 574 331 A 8 8 0 0 1 566 339 L 34 339 L 34 339 A 8 8 0 0 1 26 331 L 26 269 L 26 269 A 8 8 0 0 1 34 261 L 300 261 Z" fill-opacity="1" stroke-opacity="1" stroke-miterlimit="10" stroke-width="5"/><text fill="rgb(0,0,0)" stroke="none" font-family="Avenir, Helvetica, Arial, sans-serif" font-size="32px" font-style="normal" font-weight="bold" text-decoration="normal" x="300" y="316" text-anchor="middle" dominant-baseline="text-after-edge" fill-opacity="1">user_id</text><path fill="rgb(255,247,224)" stroke="rgb(255,193,7)" paint-order="fill stroke markers" d=" M 300 394.00000071525574 L 566 394.00000071525574 L 566 394.00000071525574 A 8 8 0 0 1 574 402.00000071525574 L 574 464.00000071525574 L 574 464.00000071525574 A 8 8 0 0 1 566 472.00000071525574 L 34 472.00000071525574 L 34 472.00000071525574 A 8 8 0 0 1 26 464.00000071525574 L 26 402.00000071525574 L 26 402.00000071525574 A 8 8 0 0 1 34 394.00000071525574 L 300 394.00000071525574 Z" fill-opacity="1" stroke-opacity="1" stroke-miterlimit="10" stroke-width="5"/><text fill="rgb(0,0,0)" stroke="none" font-family="Avenir, Helvetica, Arial, sans-serif" font-size="32px" font-style="normal" font-weight="bold" text-decoration="normal" x="300" y="449.00000071525574" text-anchor="middle" dominant-baseline="text-after-edge" fill-opacity="1">token</text><path fill="rgb(255,247,224)" stroke="rgb(255,193,7)" paint-order="fill stroke markers" d=" M 300 527.0000014305115 L 566 527.0000014305115 L 566 527.0000014305115 A 8 8 0 0 1 574 535.0000014305115 L 574 597.0000014305115 L 574 597.0000014305115 A 8 8 0 0 1 566 605.0000014305115 L 34 605.0000014305115 L 34 605.0000014305115 A 8 8 0 0 1 26 597.0000014305115 L 26 535.0000014305115 L 26 535.0000014305115 A 8 8 0 0 1 34 527.0000014305115 L 300 527.0000014305115 Z" fill-opacity="1" stroke-opacity="1" stroke-miterlimit="10" stroke-width="5"/><text fill="rgb(0,0,0)" stroke="none" font-family="Avenir, Helvetica, Arial, sans-serif" font-size="32px" font-style="normal" font-weight="bold" text-decoration="normal" x="300" y="582.0000014305115" text-anchor="middle" dominant-baseline="text-after-edge" fill-opacity="1">name</text><path fill="rgb(255,247,224)" stroke="rgb(255,193,7)" paint-order="fill stroke markers" d=" M 300 660.0000021457672 L 566 660.0000021457672 L 566 660.0000021457672 A 8 8 0 0 1 574 668.0000021457672 L 574 730.0000021457672 L 574 730.0000021457672 A 8 8 0 0 1 566 738.0000021457672 L 34 738.0000021457672 L 34 738.0000021457672 A 8 8 0 0 1 26 730.0000021457672 L 26 668.0000021457672 L 26 668.0000021457672 A 8 8 0 0 1 34 660.0000021457672 L 300 660.0000021457672 Z" fill-opacity="1" stroke-opacity="1" stroke-miterlimit="10" stroke-width="5"/><text fill="rgb(0,0,0)" stroke="none" font-family="Avenir, Helvetica, Arial, sans-serif" font-size="32px" font-style="normal" font-weight="bold" text-decoration="normal" x="300" y="715.0000021457672" text-anchor="middle" dominant-baseline="text-after-edge" fill-opacity="1">id</text><path fill="rgb(225,240,255)" stroke="rgb(29,122,218)" paint-order="fill stroke markers" d=" M 300 1317.4000014305116 L 566 1317.4000014305116 L 566 1317.4000014305116 A 8 8 0 0 1 574 1325.4000014305116 L 574 1387.4000014305116 L 574 1387.4000014305116 A 8 8 0 0 1 566 1395.4000014305116 L 34 1395.4000014305116 L 34 1395.4000014305116 A 8 8 0 0 1 26 1387.4000014305116 L 26 1325.4000014305116 L 26 1325.4000014305116 A 8 8 0 0 1 34 1317.4000014305116 L 300 1317.4000014305116 Z" fill-opacity="1" stroke-opacity="1" stroke-miterlimit="10" stroke-width="5"/><text fill="rgb(0,0,0)" stroke="none" font-family="Avenir, Helvetica, Arial, sans-serif" font-size="32px" font-style="normal" font-weight="bold" text-decoration="normal" x="300" y="1372.4000014305116" text-anchor="middle" dominant-baseline="text-after-edge" fill-opacity="1">session_remember_minutes</text><path fill="rgb(225,240,255)" stroke="rgb(29,122,218)" paint-order="fill stroke markers" d=" M 300 1450.4000021457673 L 566 1450.4000021457673 L 566 1450.4000021457673 A 8 8 0 0 1 574 1458.4000021457673 L 574 1520.4000021457673 L 574 1520.4000021457673 A 8 8 0 0 1 566 1528.4000021457673 L 34 1528.4000021457673 L 34 1528.4000021457673 A 8 8 0 0 1 26 1520.4000021457673 L 26 1458.4000021457673 L 26 1458.4000021457673 A 8 8 0 0 1 34 1450.4000021457673 L 300 1450.4000021457673 Z" fill-opacity="1" stroke-opacity="1" stroke-miterlimit="10" stroke-width="5"/><text fill="rgb(0,0,0)" stroke="none" font-family="Avenir, Helvetica, Arial, sans-serif" font-size="32px" font-style="normal" font-weight="bold" text-decoration="normal" x="300" y="1505.4000021457673" text-anchor="middle" dominant-baseline="text-after-edge" fill-opacity="1">members</text><path fill="rgb(225,240,255)" stroke="rgb(29,122,218)" paint-order="fill stroke markers" d=" M 300 1583.400002861023 L 566 1583.400002861023 L 566 1583.400002861023 A 8 8 0 0 1 574 1591.400002861023 L 574 1653.400002861023 L 574 1653.400002861023 A 8 8 0 0 1 566 1661.400002861023 L 34 1661.400002861023 L 34 1661.400002861023 A 8 8 0 0 1 26 1653.400002861023 L 26 1591.400002861023 L 26 1591.400002861023 A 8 8 0 0 1 34 1583.400002861023 L 300 1583.400002861023 Z" fill-opacity="1" stroke-opacity="1" stroke-miterlimit="10" stroke-width="5"/><text fill="rgb(0,0,0)" stroke="none" font-family="Avenir, Helvetica, Arial, sans-serif" font-size="32px" font-style="normal" font-weight="bold" text-decoration="normal" x="300" y="1638.400002861023" text-anchor="middle" dominant-baseline="text-after-edge" fill-opacity="1">name</text><path fill="rgb(225,240,255)" stroke="rgb(29,122,218)" paint-order="fill stroke markers" d=" M 300 1716.4000035762788 L 566 1716.4000035762788 L 566 1716.4000035762788 A 8 8 0 0 1 574 1724.4000035762788 L 574 1786.4000035762788 L 574 1786.4000035762788 A 8 8 0 0 1 566 1794.4000035762788 L 34 1794.4000035762788 L 34 1794.4000035762788 A 8 8 0 0 1 26 1786.4000035762788 L 26 1724.4000035762788 L 26 1724.4000035762788 A 8 8 0 0 1 34 1716.4000035762788 L 300 1716.4000035762788 Z" fill-opacity="1" stroke-opacity="1" stroke-miterlimit="10" stroke-width="5"/><text fill="rgb(0,0,0)" stroke="none" font-family="Avenir, Helvetica, Arial, sans-serif" font-size="32px" font-style="normal" font-weight="bold" text-decoration="normal" x="300" y="1771.4000035762788" text-anchor="middle" dominant-baseline="text-after-edge" fill-opacity="1">email</text><path fill="rgb(225,240,255)" stroke="rgb(29,122,218)" paint-order="fill stroke markers" d=" M 300 1849.4000042915345 L 566 1849.4000042915345 L 566 1849.4000042915345 A 8 8 0 0 1 574 1857.4000042915345 L 574 1919.4000042915345 L 574 1919.4000042915345 A 8 8 0 0 1 566 1927.4000042915345 L 34 1927.4000042915345 L 34 1927.4000042915345 A 8 8 0 0 1 26 1919.4000042915345 L 26 1857.4000042915345 L 26 1857.4000042915345 A 8 8 0 0 1 34 1849.4000042915345 L 300 1849.4000042915345 Z" fill-opacity="1" stroke-opacity="1" stroke-miterlimit="10" stroke-width="5"/><text fill="rgb(0,0,0)" stroke="none" font-family="Avenir, Helvetica, Arial, sans-serif" font-size="32px" font-style="normal" font-weight="bold" text-decoration="normal" x="300" y="1904.4000042915345" text-anchor="middle" dominant-baseline="text-after-edge" fill-opacity="1">session_timeout_minutes</text><path fill="rgb(225,240,255)" stroke="rgb(29,122,218)" paint-order="fill stroke markers" d=" M 300 1982.4000050067903 L 566 1982.4000050067903 L 566 1982.4000050067903 A 8 8 0 0 1 574 1990.4000050067903 L 574 2052.4000050067903 L 574 2052.4000050067903 A 8 8 0 0 1 566 2060.4000050067903 L 34 2060.4000050067903 L 34 2060.4000050067903 A 8 8 0 0 1 26 2052.4000050067903 L 26 1990.4000050067903 L 26 1990.4000050067903 A 8 8 0 0 1 34 1982.4000050067903 L 300 1982.4000050067903 Z" fill-opacity="1" stroke-opacity="1" stroke-miterlimit="10" stroke-width="5"/><text fill="rgb(0,0,0)" stroke="none" font-family="Avenir, Helvetica, Arial, sans-serif" font-size="32px" font-style="normal" font-weight="bold" text-decoration="normal" x="300" y="2037.4000050067903" text-anchor="middle" dominant-baseline="text-after-edge" fill-opacity="1">owners_team_saml_role_id</text><path fill="rgb(225,240,255)" stroke="rgb(29,122,218)" paint-order="fill stroke markers" d=" M 300 2514.400007867813 L 566 2514.400007867813 L 566 2514.400007867813 A 8 8 0 0 1 574 2522.400007867813 L 574 2584.400007867813 L 574 2584.400007867813 A 8 8 0 0 1 566 2592.400007867813 L 34 2592.400007867813 L 34 2592.400007867813 A 8 8 0 0 1 26 2584.400007867813 L 26 2522.400007867813 L 26 2522.400007867813 A 8 8 0 0 1 34 2514.400007867813 L 300 2514.400007867813 Z" fill-opacity="1" stroke-opacity="1" stroke-miterlimit="10" stroke-width="5"/><text fill="rgb(0,0,0)" stroke="none" font-family="Avenir, Helvetica, Arial, sans-serif" font-size="32px" font-style="normal" font-weight="bold" text-decoration="normal" x="300" y="2569.400007867813" text-anchor="middle" dominant-baseline="text-after-edge" fill-opacity="1">send_passing_statuses_for_untriggered_speculative_plans</text><path fill="rgb(225,240,255)" stroke="rgb(29,122,218)" paint-order="fill stroke markers" d=" M 300 2115.400005722046 L 566 2115.400005722046 L 566 2115.400005722046 A 8 8 0 0 1 574 2123.400005722046 L 574 2185.400005722046 L 574 2185.400005722046 A 8 8 0 0 1 566 2193.400005722046 L 34 2193.400005722046 L 34 2193.400005722046 A 8 8 0 0 1 26 2185.400005722046 L 26 2123.400005722046 L 26 2123.400005722046 A 8 8 0 0 1 34 2115.400005722046 L 300 2115.400005722046 Z" fill-opacity="1" stroke-opacity="1" stroke-miterlimit="10" stroke-width="5"/><text fill="rgb(0,0,0)" stroke="none" font-family="Avenir, Helvetica, Arial, sans-serif" font-size="32px" font-style="normal" font-weight="bold" text-decoration="normal" x="300" y="2170.400005722046" text-anchor="middle" dominant-baseline="text-after-edge" fill-opacity="1">collaborator_auth_policy</text><path fill="rgb(225,240,255)" stroke="rgb(29,122,218)" paint-order="fill stroke markers" d=" M 300 2248.4000064373017 L 566 2248.4000064373017 L 566 2248.4000064373017 A 8 8 0 0 1 574 2256.4000064373017 L 574 2318.4000064373017 L 574 2318.4000064373017 A 8 8 0 0 1 566 2326.4000064373017 L 34 2326.4000064373017 L 34 2326.4000064373017 A 8 8 0 0 1 26 2318.4000064373017 L 26 2256.4000064373017 L 26 2256.4000064373017 A 8 8 0 0 1 34 2248.4000064373017 L 300 2248.4000064373017 Z" fill-opacity="1" stroke-opacity="1" stroke-miterlimit="10" stroke-width="5"/><text fill="rgb(0,0,0)" stroke="none" font-family="Avenir, Helvetica, Arial, sans-serif" font-size="32px" font-style="normal" font-weight="bold" text-decoration="normal" x="300" y="2303.4000064373017" text-anchor="middle" dominant-baseline="text-after-edge" fill-opacity="1">cost_estimation_enabled</text><path fill="rgb(225,240,255)" stroke="rgb(29,122,218)" paint-order="fill stroke markers" d=" M 300 2381.4000071525575 L 566 2381.4000071525575 L 566 2381.4000071525575 A 8 8 0 0 1 574 2389.4000071525575 L 574 2451.4000071525575 L 574 2451.4000071525575 A 8 8 0 0 1 566 2459.4000071525575 L 34 2459.4000071525575 L 34 2459.4000071525575 A 8 8 0 0 1 26 2451.4000071525575 L 26 2389.4000071525575 L 26 2389.4000071525575 A 8 8 0 0 1 34 2381.4000071525575 L 300 2381.4000071525575 Z" fill-opacity="1" stroke-opacity="1" stroke-miterlimit="10" stroke-width="5"/><text fill="rgb(0,0,0)" stroke="none" font-family="Avenir, Helvetica, Arial, sans-serif" font-size="32px" font-style="normal" font-weight="bold" text-decoration="normal" x="300" y="2436.4000071525575" text-anchor="middle" dominant-baseline="text-after-edge" fill-opacity="1">force_regenerate</text><path fill="rgb(40,167,69)" stroke="none" paint-order="stroke fill markers" d=" M 1403.0000007152557 361 L 1669.0000007152557 361 L 1669.0000007152557 361 A 8 8 0 0 1 1677.0000007152557 369 L 1677.0000007152557 431 L 1677.0000007152557 431 A 8 8 0 0 1 1669.0000007152557 439 L 1137.0000007152557 439 L 1137.0000007152557 439 A 8 8 0 0 1 1129.0000007152557 431 L 1129.0000007152557 369 L 1129.0000007152557 369 A 8 8 0 0 1 1137.0000007152557 361 L 1403.0000007152557 361 Z" fill-opacity="1"/><text fill="rgb(255,255,255)" stroke="none" font-family="Avenir, Helvetica, Arial, sans-serif" font-size="32px" font-style="normal" font-weight="bold" text-decoration="normal" x="1403.0000007152557" y="416" text-anchor="middle" dominant-baseline="text-after-edge" fill-opacity="1">default</text><path fill="rgb(40,167,69)" stroke="none" paint-order="stroke fill markers" d=" M 1403.0000007152557 689.2000007152558 L 1669.0000007152557 689.2000007152558 L 1669.0000007152557 689.2000007152558 A 8 8 0 0 1 1677.0000007152557 697.2000007152558 L 1677.0000007152557 759.2000007152558 L 1677.0000007152557 759.2000007152558 A 8 8 0 0 1 1669.0000007152557 767.2000007152558 L 1137.0000007152557 767.2000007152558 L 1137.0000007152557 767.2000007152558 A 8 8 0 0 1 1129.0000007152557 759.2000007152558 L 1129.0000007152557 697.2000007152558 L 1129.0000007152557 697.2000007152558 A 8 8 0 0 1 1137.0000007152557 689.2000007152558 L 1403.0000007152557 689.2000007152558 Z" fill-opacity="1"/><text fill="rgb(255,255,255)" stroke="none" font-family="Avenir, Helvetica, Arial, sans-serif" font-size="32px" font-style="normal" font-weight="bold" text-decoration="normal" x="1403.0000007152557" y="744.2000007152558" text-anchor="middle" dominant-baseline="text-after-edge" fill-opacity="1">default</text><g transform="scale(5,5) translate(-87.60000000000001,-9.5)"/></g></svg>