<svg version="1.1" xmlns="http://www.w3.org/2000/svg" xmlns:xlink="http://www.w3.org/1999/xlink" width="1181.6000000000001" height="778.2"><defs><linearGradient id="iuxcUTrXtZLI" x1="2582.5000014305115px" x2="2868.000002145767px" y1="300px" y2="1890.1500042915345px" gradientUnits="userSpaceOnUse"><stop offset="0" stop-color="rgb(255,193,7)" stop-opacity="1"/><stop offset="1" stop-color="rgb(132,80,186)" stop-opacity="1"/></linearGradient><linearGradient id="OifDBdNAJZXD" x1="2582.5000014305115px" x2="2868.000002145767px" y1="300px" y2="1890.1500042915345px" gradientUnits="userSpaceOnUse"><stop offset="0" stop-color="rgb(255,193,7)" stop-opacity="1"/><stop offset="1" stop-color="rgb(132,80,186)" stop-opacity="1"/></linearGradient><linearGradient id="dVuAMVTxDHDc" x1="2582.5000014305115px" x2="2868.000002145767px" y1="433.00000071525574px" y2="1890.1500042915345px" gradientUnits="userSpaceOnUse"><stop offset="0" stop-color="rgb(255,193,7)" stop-opacity="1"/><stop offset="1" stop-color="rgb(132,80,186)" stop-opacity="1"/></linearGradient><linearGradient id="GTOyGQaEgFIT" x1="2582.5000014305115px" x2="2868.000002145767px" y1="433.00000071525574px" y2="1890.1500042915345px" gradientUnits="userSpaceOnUse"><stop offset="0" stop-color="rgb(255,193,7)" stop-opacity="1"/><stop offset="1" stop-color="rgb(132,80,186)" stop-opacity="1"/></linearGradient><linearGradient id="PMWCLkneDSTM" x1="2582.5000014305115px" x2="2868.000002145767px" y1="566.0000014305115px" y2="1890.1500042915345px" gradientUnits="userSpaceOnUse"><stop offset="0" stop-color="rgb(255,193,7)" stop-opacity="1"/><stop offset="1" stop-color="rgb(132,80,186)" stop-opacity="1"/></linearGradient><linearGradient id="RNLGMxaJAXtq" x1="2582.5000014305115px" x2="2868.000002145767px" y1="566.0000014305115px" y2="1890.1500042915345px" gradientUnits="userSpaceOnUse"><stop offset="0" stop-color="rgb(255,193,7)" stop-opacity="1"/><stop offset="1" stop-color="rgb(132,80,186)" stop-opacity="1"/></linearGradient><linearGradient id="JZkfgBadqTZg" x1="2582.5000014305115px" x2="2868.000002145767px" y1="699.0000021457672px" y2="1890.1500042915345px" gradientUnits="userSpaceOnUse"><stop offset="0" stop-color="rgb(255,193,7)" stop-opacity="1"/><stop offset="1" stop-color="rgb(132,80,186)" stop-opacity="1"/></linearGradient><linearGradient id="nQTDFqeoUxpJ" x1="2582.5000014305115px" x2="2868.000002145767px" y1="699.0000021457672px" y2="1890.1500042915345px" gradientUnits="userSpaceOnUse"><stop offset="0" stop-color="rgb(255,193,7)" stop-opacity="1"/><stop offset="1" stop-color="rgb(132,80,186)" stop-opacity="1"/></linearGradient><linearGradient id="KzEByuCPHDVG" x1="2582.5000014305115px" x2="2868.000002145767px" y1="832.000002861023px" y2="1890.1500042915345px" gradientUnits="userSpaceOnUse"><stop offset="0" stop-color="rgb(255,193,7)" stop-opacity="1"/><stop offset="1" stop-color="rgb(132,80,186)" stop-opacity="1"/></linearGradient><linearGradient id="eexTTTIAJirC" x1="2582.5000014305115px" x2="2868.000002145767px" y1="832.000002861023px" y2="1890.1500042915345px" gradientUnits="userSpaceOnUse"><stop offset="0" stop-color="rgb(255,193,7)" stop-opacity="1"/><stop offset="1" stop-color="rgb(132,80,186)" stop-opacity="1"/></linearGradient><linearGradient id="agIFGrfhxvpU" x1="2868.000002145767px" x2="1579.5000007152557px" y1="1890.1500042915345px" y2="566.0000014305115px" gradientUnits="userSpaceOnUse"><stop offset="0" stop-color="rgb(132,80,186)" stop-opacity="1"/><stop offset="1" stop-color="rgb(0,0,0)" stop-opacity="1"/></linearGradient><linearGradient id="iHQyCopgZNpL" x1="2868.000002145767px" x2="1579.5000007152557px" y1="1890.1500042915345px" y2="300px" gradientUnits="userSpaceOnUse"><stop offset="0" stop-color="rgb(132,80,186)" stop-opacity="1"/><stop offset="1" stop-color="rgb(0,0,0)" stop-opacity="1"/></linearGradient><linearGradient id="rqvPbrGVOznQ" x1="2868.000002145767px" x2="1579.5000007152557px" y1="1890.1500042915345px" y2="433.00000071525574px" gradientUnits="userSpaceOnUse"><stop offset="0" stop-color="rgb(132,80,186)" stop-opacity="1"/><stop offset="1" stop-color="rgb(0,0,0)" stop-opacity="1"/></linearGradient><linearGradient id="kATDzmhGLHEG" x1="3785.500002145767px" x2="4338.000002861023px" y1="500px" y2="928.2000007152558px" gradientUnits="userSpaceOnUse"><stop offset="0" stop-color="rgb(255,193,7)" stop-opacity="1"/><stop offset="1" stop-color="rgb(211,211,211)" stop-opacity="1"/></linearGradient><linearGradient id="rzBBwtnemBDt" x1="3785.500002145767px" x2="4379.500002861023px" y1="633.0000007152557px" y2="1356.4000014305116px" gradientUnits="userSpaceOnUse"><stop offset="0" stop-color="rgb(255,193,7)" stop-opacity="1"/><stop offset="1" stop-color="rgb(211,211,211)" stop-opacity="1"/></linearGradient><linearGradient id="WAaTUnSwSavd" x1="3785.500002145767px" x2="4338.000002861023px" y1="766.0000014305115px" y2="600px" gradientUnits="userSpaceOnUse"><stop offset="0" stop-color="rgb(255,193,7)" stop-opacity="1"/><stop offset="1" stop-color="rgb(211,211,211)" stop-opacity="1"/></linearGradient><linearGradient id="XDsPzgcdPvGd" x1="4612.000002861023px" x2="3509.000002145767px" y1="967.2000007152558px" y2="2575.3000050067903px" gradientUnits="userSpaceOnUse"><stop offset="0" stop-color="rgb(211,211,211)" stop-opacity="1"/><stop offset="1" stop-color="rgb(29,122,218)" stop-opacity="1"/></linearGradient><linearGradient id="yxXiHFNncyWw" x1="4612.000002861023px" x2="3509.000002145767px" y1="967.2000007152558px" y2="2841.300006437302px" gradientUnits="userSpaceOnUse"><stop offset="0" stop-color="rgb(211,211,211)" stop-opacity="1"/><stop offset="1" stop-color="rgb(29,122,218)" stop-opacity="1"/></linearGradient><linearGradient id="nbrhJszOAdFk" x1="4612.000002861023px" x2="3509.000002145767px" y1="967.2000007152558px" y2="2974.3000071525576px" gradientUnits="userSpaceOnUse"><stop offset="0" stop-color="rgb(211,211,211)" stop-opacity="1"/><stop offset="1" stop-color="rgb(29,122,218)" stop-opacity="1"/></linearGradient><linearGradient id="qOLQSkhMXKzf" x1="4612.000002861023px" x2="3509.000002145767px" y1="967.2000007152558px" y2="3240.300008583069px" gradientUnits="userSpaceOnUse"><stop offset="0" stop-color="rgb(211,211,211)" stop-opacity="1"/><stop offset="1" stop-color="rgb(29,122,218)" stop-opacity="1"/></linearGradient><linearGradient id="igPOyHRuNtVI" x1="4612.000002861023px" x2="3509.000002145767px" y1="967.2000007152558px" y2="2442.3000042915346px" gradientUnits="userSpaceOnUse"><stop offset="0" stop-color="rgb(211,211,211)" stop-opacity="1"/><stop offset="1" stop-color="rgb(29,122,218)" stop-opacity="1"/></linearGradient><linearGradient id="qHIyFNPleWTd" x1="4612.000002861023px" x2="3509.000002145767px" y1="967.2000007152558px" y2="2309.300003576279px" gradientUnits="userSpaceOnUse"><stop offset="0" stop-color="rgb(211,211,211)" stop-opacity="1"/><stop offset="1" stop-color="rgb(29,122,218)" stop-opacity="1"/></linearGradient><linearGradient id="rniAoQTrPglb" x1="4612.000002861023px" x2="3509.000002145767px" y1="967.2000007152558px" y2="3107.3000078678133px" gradientUnits="userSpaceOnUse"><stop offset="0" stop-color="rgb(211,211,211)" stop-opacity="1"/><stop offset="1" stop-color="rgb(29,122,218)" stop-opacity="1"/></linearGradient><linearGradient id="NrtrfPieatLq" x1="4612.000002861023px" x2="3509.000002145767px" y1="967.2000007152558px" y2="2043.3000021457674px" gradientUnits="userSpaceOnUse"><stop offset="0" stop-color="rgb(211,211,211)" stop-opacity="1"/><stop offset="1" stop-color="rgb(29,122,218)" stop-opacity="1"/></linearGradient><linearGradient id="eJOxZhHNMtpR" x1="4712.000002861023px" x2="4612.000002861023px" y1="1258.9000014305116px" y2="967.2000007152558px" gradientUnits="userSpaceOnUse"><stop offset="0" stop-color="rgb(211,211,211)" stop-opacity="1"/><stop offset="1" stop-color="rgb(211,211,211)" stop-opacity="1"/></linearGradient><linearGradient id="PPqtcGAPqVtN" x1="4612.000002861023px" x2="3509.000002145767px" y1="639px" y2="2708.300005722046px" gradientUnits="userSpaceOnUse"><stop offset="0" stop-color="rgb(211,211,211)" stop-opacity="1"/><stop offset="1" stop-color="rgb(29,122,218)" stop-opacity="1"/></linearGradient><linearGradient id="GoaRDgqnsTSr" x1="4612.000002861023px" x2="4612.000002861023px" y1="639px" y2="889.2000007152558px" gradientUnits="userSpaceOnUse"><stop offset="0" stop-color="rgb(211,211,211)" stop-opacity="1"/><stop offset="1" stop-color="rgb(211,211,211)" stop-opacity="1"/></linearGradient></defs><g transform="translate(56.2,11) scale(0.2,0.2)"><path fill="rgb(244,236,255)" stroke="rgb(255,255,255)" paint-order="fill stroke markers" d=" M 2672.850001430512 -53 L 5616.700002861024 -53 L 5616.700002861024 -53 A 8 8 0 0 1 5624.700002861024 -45 L 5624.700002861024 3825.300008583069 L 5624.700002861024 3825.300008583069 A 8 8 0 0 1 5616.700002861024 3833.300008583069 L -271 3833.300008583069 L -271 3833.300008583069 A 8 8 0 0 1 -279 3825.300008583069 L -279 -45 L -279 -45 A 8 8 0 0 1 -271 -53 L 2672.850001430512 -53 Z" fill-opacity="1" stroke-opacity="1" stroke-miterlimit="10" stroke-width="2"/><text fill="rgb(0,0,0)" stroke="none" font-family="Avenir, Helvetica, Arial, sans-serif" font-size="32px" font-style="normal" font-weight="bold" text-decoration="normal" x="2672.850001430512" y="22" text-anchor="middle" dominant-baseline="text-after-edge" fill-opacity="1">.</text><path fill="rgb(255,255,255)" stroke="rgb(211,211,211)" paint-order="fill stroke markers" d=" M 4095.1000025033954 148.5 L 5415.200002861024 148.5 L 5415.200002861024 148.5 A 8 8 0 0 1 5423.200002861024 156.5 L 5423.200002861024 3623.800008583069 L 5423.200002861024 3623.800008583069 A 8 8 0 0 1 5415.200002861024 3631.800008583069 L 2775.000002145767 3631.800008583069 L 2775.000002145767 3631.800008583069 A 8 8 0 0 1 2767.000002145767 3623.800008583069 L 2767.000002145767 156.5 L 2767.000002145767 156.5 A 8 8 0 0 1 2775.000002145767 148.5 L 4095.1000025033954 148.5 Z" fill-opacity="1" stroke-opacity="1" stroke-miterlimit="10"/><text fill="rgb(0,0,0)" stroke="none" font-family="Avenir, Helvetica, Arial, sans-serif" font-size="32px" font-style="normal" font-weight="bold" text-decoration="normal" x="4095.1000025033954" y="223.5" text-anchor="middle" dominant-baseline="text-after-edge" fill-opacity="1">main.tf</text><path fill="rgb(255,255,255)" stroke="rgb(211,211,211)" paint-order="fill stroke markers" d=" M 1303.0000007152557 157.5 L 1672.5000007152557 157.5 L 1672.5000007152557 157.5 A 8 8 0 0 1 1680.5000007152557 165.5 L 1680.5000007152557 700.5000014305115 L 1680.5000007152557 700.5000014305115 A 8 8 0 0 1 1672.5000007152557 708.5000014305115 L 933.5000007152557 708.5000014305115 L 933.5000007152557 708.5000014305115 A 8 8 0 0 1 925.5000007152557 700.5000014305115 L 925.5000007152557 165.5 L 925.5000007152557 165.5 A 8 8 0 0 1 933.5000007152557 157.5 L 1303.0000007152557 157.5 Z" fill-opacity="1" stroke-opacity="1" stroke-miterlimit="10"/><text fill="rgb(0,0,0)" stroke="none" font-family="Avenir, Helvetica, Arial, sans-serif" font-size="32px" font-style="normal" font-weight="bold" text-decoration="normal" x="1303.0000007152557" y="232.5" text-anchor="middle" dominant-baseline="text-after-edge" fill-opacity="1">unknown file</text><path fill="rgb(255,255,255)" stroke="rgb(211,211,211)" paint-order="fill stroke markers" d=" M 2306.0000014305115 157.5 L 2675.5000014305115 157.5 L 2675.5000014305115 157.5 A 8 8 0 0 1 2683.5000014305115 165.5 L 2683.5000014305115 966.500002861023 L 2683.5000014305115 966.500002861023 A 8 8 0 0 1 2675.5000014305115 974.500002861023 L 1936.5000014305115 974.500002861023 L 1936.5000014305115 974.500002861023 A 8 8 0 0 1 1928.5000014305115 966.500002861023 L 1928.5000014305115 165.5 L 1928.5000014305115 165.5 A 8 8 0 0 1 1936.5000014305115 157.5 L 2306.0000014305115 157.5 Z" fill-opacity="1" stroke-opacity="1" stroke-miterlimit="10"/><text fill="rgb(0,0,0)" stroke="none" font-family="Avenir, Helvetica, Arial, sans-serif" font-size="32px" font-style="normal" font-weight="bold" text-decoration="normal" x="2306.0000014305115" y="232.5" text-anchor="middle" dominant-baseline="text-after-edge" fill-opacity="1">outputs.tf</text><path fill="rgb(255,255,255)" stroke="rgb(211,211,211)" paint-order="fill stroke markers" d=" M 300 157.5 L 669.5 157.5 L 669.5 157.5 A 8 8 0 0 1 677.5 165.5 L 677.5 434.5 L 677.5 434.5 A 8 8 0 0 1 669.5 442.5 L -69.5 442.5 L -69.5 442.5 A 8 8 0 0 1 -77.5 434.5 L -77.5 165.5 L -77.5 165.5 A 8 8 0 0 1 -69.5 157.5 L 300 157.5 Z" fill-opacity="1" stroke-opacity="1" stroke-miterlimit="10"/><text fill="rgb(0,0,0)" stroke="none" font-family="Avenir, Helvetica, Arial, sans-serif" font-size="32px" font-style="normal" font-weight="bold" text-decoration="normal" x="300" y="232.5" text-anchor="middle" dominant-baseline="text-after-edge" fill-opacity="1">variables.tf</text><path fill="rgb(255,255,255)" stroke="rgb(132,80,186)" paint-order="fill stroke markers" d=" M 4095.1000025033954 254.5 L 5309.200002861024 254.5 L 5309.200002861024 254.5 A 8 8 0 0 1 5317.200002861024 262.5 L 5317.200002861024 3517.800008583069 L 5317.200002861024 3517.800008583069 A 8 8 0 0 1 5309.200002861024 3525.800008583069 L 2881.000002145767 3525.800008583069 L 2881.000002145767 3525.800008583069 A 8 8 0 0 1 2873.000002145767 3517.800008583069 L 2873.000002145767 262.5 L 2873.000002145767 262.5 A 8 8 0 0 1 2881.000002145767 254.5 L 4095.1000025033954 254.5 Z" fill-opacity="1" stroke-opacity="1" stroke-miterlimit="10" stroke-width="10"/><text fill="rgb(132,80,186)" stroke="none" font-family="Avenir, Helvetica, Arial, sans-serif" font-size="32px" font-style="normal" font-weight="bold" text-decoration="normal" x="4095.1000025033954" y="314.5" text-anchor="middle" dominant-baseline="text-after-edge" fill-opacity="1">tfe_organization</text><path fill="rgb(255,255,255)" stroke="rgb(211,211,211)" paint-order="fill stroke markers" d=" M 4697.100002861023 356 L 5207.700002861024 356 L 5207.700002861024 356 A 8 8 0 0 1 5215.700002861024 364 L 5215.700002861024 1617.1000014305116 L 5215.700002861024 1617.1000014305116 A 8 8 0 0 1 5207.700002861024 1625.1000014305116 L 4186.500002861023 1625.1000014305116 L 4186.500002861023 1625.1000014305116 A 8 8 0 0 1 4178.500002861023 1617.1000014305116 L 4178.500002861023 364 L 4178.500002861023 364 A 8 8 0 0 1 4186.500002861023 356 L 4697.100002861023 356 Z" fill-opacity="1" stroke-opacity="1" stroke-miterlimit="10"/><text fill="rgb(0,0,0)" stroke="none" font-family="Avenir, Helvetica, Arial, sans-serif" font-size="32px" font-style="normal" font-weight="bold" text-decoration="normal" x="4697.100002861023" y="431" text-anchor="middle" dominant-baseline="text-after-edge" fill-opacity="1">main.tf</text><path fill="rgb(255,255,255)" stroke="rgb(211,211,211)" paint-order="fill stroke markers" d=" M 3509.000002145767 357.5 L 3878.500002145767 357.5 L 3878.500002145767 357.5 A 8 8 0 0 1 3886.500002145767 365.5 L 3886.500002145767 900.5000014305115 L 3886.500002145767 900.5000014305115 A 8 8 0 0 1 3878.500002145767 908.5000014305115 L 3139.500002145767 908.5000014305115 L 3139.500002145767 908.5000014305115 A 8 8 0 0 1 3131.500002145767 900.5000014305115 L 3131.500002145767 365.5 L 3131.500002145767 365.5 A 8 8 0 0 1 3139.500002145767 357.5 L 3509.000002145767 357.5 Z" fill-opacity="1" stroke-opacity="1" stroke-miterlimit="10"/><text fill="rgb(0,0,0)" stroke="none" font-family="Avenir, Helvetica, Arial, sans-serif" font-size="32px" font-style="normal" font-weight="bold" text-decoration="normal" x="3509.000002145767" y="432.5" text-anchor="middle" dominant-baseline="text-after-edge" fill-opacity="1">outputs.tf</text><path fill="rgb(255,255,255)" stroke="rgb(211,211,211)" paint-order="fill stroke markers" d=" M 3509.000002145767 1942.3000021457674 L 4035.500002145767 1942.3000021457674 L 4035.500002145767 1942.3000021457674 A 8 8 0 0 1 4043.500002145767 1950.3000021457674 L 4043.500002145767 3416.300008583069 L 4043.500002145767 3416.300008583069 A 8 8 0 0 1 4035.500002145767 3424.300008583069 L 2982.500002145767 3424.300008583069 L 2982.500002145767 3424.300008583069 A 8 8 0 0 1 2974.500002145767 3416.300008583069 L 2974.500002145767 1950.3000021457674 L 2974.500002145767 1950.3000021457674 A 8 8 0 0 1 2982.500002145767 1942.3000021457674 L 3509.000002145767 1942.3000021457674 Z" fill-opacity="1" stroke-opacity="1" stroke-miterlimit="10"/><text fill="rgb(0,0,0)" stroke="none" font-family="Avenir, Helvetica, Arial, sans-serif" font-size="32px" font-style="normal" font-weight="bold" text-decoration="normal" x="3509.000002145767" y="2017.3000021457674" text-anchor="middle" dominant-baseline="text-after-edge" fill-opacity="1">variables.tf</text><path fill="rgb(255,255,255)" stroke="rgb(0,0,0)" paint-order="fill stroke markers" d=" M 4612.000002861023 505 L 4934.000002861023 505 L 4934.000002861023 505 A 8 8 0 0 1 4942.000002861023 513 L 4942.000002861023 687 L 4942.000002861023 687 A 8 8 0 0 1 4934.000002861023 695 L 4290.000002861023 695 L 4290.000002861023 695 A 8 8 0 0 1 4282.000002861023 687 L 4282.000002861023 513 L 4282.000002861023 513 A 8 8 0 0 1 4290.000002861023 505 L 4612.000002861023 505 Z" fill-opacity="1" stroke-opacity="1" stroke-miterlimit="10" stroke-width="5"/><rect fill="rgb(255,255,255)" stroke="none" x="4406.500002861023" y="456" width="411" height="96" fill-opacity="1"/><text fill="rgb(0,0,0)" stroke="none" font-family="Avenir, Helvetica, Arial, sans-serif" font-size="32px" font-style="normal" font-weight="bold" text-decoration="normal" x="4612.000002861023" y="520" text-anchor="middle" dominant-baseline="text-after-edge" fill-opacity="1">tfe_organization_token</text><path fill="rgb(255,255,255)" stroke="rgb(0,0,0)" paint-order="fill stroke markers" d=" M 4612.000002861023 833.2000007152558 L 4934.000002861023 833.2000007152558 L 4934.000002861023 833.2000007152558 A 8 8 0 0 1 4942.000002861023 841.2000007152558 L 4942.000002861023 1015.2000007152558 L 4942.000002861023 1015.2000007152558 A 8 8 0 0 1 4934.000002861023 1023.2000007152558 L 4290.000002861023 1023.2000007152558 L 4290.000002861023 1023.2000007152558 A 8 8 0 0 1 4282.000002861023 1015.2000007152558 L 4282.000002861023 841.2000007152558 L 4282.000002861023 841.2000007152558 A 8 8 0 0 1 4290.000002861023 833.2000007152558 L 4612.000002861023 833.2000007152558 Z" fill-opacity="1" stroke-opacity="1" stroke-miterlimit="10" stroke-width="5"/><rect fill="rgb(255,255,255)" stroke="none" x="4457.500002861023" y="784.2000007152558" width="309" height="96" fill-opacity="1"/><text fill="rgb(0,0,0)" stroke="none" font-family="Avenir, Helvetica, Arial, sans-serif" font-size="32px" font-style="normal" font-weight="bold" text-decoration="normal" x="4612.000002861023" y="848.2000007152558" text-anchor="middle" dominant-baseline="text-after-edge" fill-opacity="1">tfe_organization</text><path fill="rgb(255,255,255)" stroke="rgb(0,0,0)" paint-order="fill stroke markers" d=" M 4712.000002861023 1145.7000014305115 L 5104.200002861023 1145.7000014305115 L 5104.200002861023 1145.7000014305115 A 8 8 0 0 1 5112.200002861023 1153.7000014305115 L 5112.200002861023 1513.6000014305116 L 5112.200002861023 1513.6000014305116 A 8 8 0 0 1 5104.200002861023 1521.6000014305116 L 4319.800002861023 1521.6000014305116 L 4319.800002861023 1521.6000014305116 A 8 8 0 0 1 4311.800002861023 1513.6000014305116 L 4311.800002861023 1153.7000014305115 L 4311.800002861023 1153.7000014305115 A 8 8 0 0 1 4319.800002861023 1145.7000014305115 L 4712.000002861023 1145.7000014305115 Z" fill-opacity="1" stroke-opacity="1" stroke-miterlimit="10" stroke-width="5"/><rect fill="rgb(255,255,255)" stroke="none" x="4456.500002861023" y="1096.7000014305115" width="511" height="96" fill-opacity="1"/><text fill="rgb(0,0,0)" stroke="none" font-family="Avenir, Helvetica, Arial, sans-serif" font-size="32px" font-style="normal" font-weight="bold" text-decoration="normal" x="4712.000002861023" y="1160.7000014305115" text-anchor="middle" dominant-baseline="text-after-edge" fill-opacity="1">tfe_organization_membership</text><path fill="rgb(255,255,255)" stroke="rgb(0,0,0)" paint-order="fill stroke markers" d=" M 4712.000002861023 1261.4000014305116 L 5034.000002861023 1261.4000014305116 L 5034.000002861023 1261.4000014305116 A 8 8 0 0 1 5042.000002861023 1269.4000014305116 L 5042.000002861023 1443.4000014305116 L 5042.000002861023 1443.4000014305116 A 8 8 0 0 1 5034.000002861023 1451.4000014305116 L 4390.000002861023 1451.4000014305116 L 4390.000002861023 1451.4000014305116 A 8 8 0 0 1 4382.000002861023 1443.4000014305116 L 4382.000002861023 1269.4000014305116 L 4382.000002861023 1269.4000014305116 A 8 8 0 0 1 4390.000002861023 1261.4000014305116 L 4712.000002861023 1261.4000014305116 Z" fill-opacity="1" stroke-opacity="1" stroke-miterlimit="10" stroke-width="5"/><rect fill="rgb(255,255,255)" stroke="none" x="4627.000002861023" y="1212.4000014305116" width="170" height="96" fill-opacity="1"/><text fill="rgb(0,0,0)" stroke="none" font-family="Avenir, Helvetica, Arial, sans-serif" font-size="32px" font-style="normal" font-weight="bold" text-decoration="normal" x="4712.000002861023" y="1276.4000014305116" text-anchor="middle" dominant-baseline="text-after-edge" fill-opacity="1">default</text><path fill="none" stroke="url(#iuxcUTrXtZLI)" paint-order="fill stroke markers" d=" M 2582.5000014305115 300 L 2725.2500017881393 300 L 2725.2500017881393 1890.1500042915345 L 2868.000002145767 1890.1500042915345" stroke-linejoin="round" stroke-miterlimit="10" stroke-width="10"/><path fill="none" stroke="url(#OifDBdNAJZXD)" paint-order="fill stroke markers" d=" M 2582.5000014305115 300 L 2725.2500017881393 300 L 2725.2500017881393 1890.1500042915345 L 2868.000002145767 1890.1500042915345" stroke-linejoin="round" stroke-miterlimit="10" stroke-width="10"/><path fill="none" stroke="url(#dVuAMVTxDHDc)" paint-order="fill stroke markers" d=" M 2582.5000014305115 433.00000071525574 L 2725.2500017881393 433.00000071525574 L 2725.2500017881393 1890.1500042915345 L 2868.000002145767 1890.1500042915345" stroke-linejoin="round" stroke-miterlimit="10" stroke-width="10"/><path fill="none" stroke="url(#GTOyGQaEgFIT)" paint-order="fill stroke markers" d=" M 2582.5000014305115 433.00000071525574 L 2725.2500017881393 433.00000071525574 L 2725.2500017881393 1890.1500042915345 L 2868.000002145767 1890.1500042915345" stroke-linejoin="round" stroke-miterlimit="10" stroke-width="10"/><path fill="none" stroke="url(#PMWCLkneDSTM)" paint-order="fill stroke markers" d=" M 2582.5000014305115 566.0000014305115 L 2725.2500017881393 566.0000014305115 L 2725.2500017881393 1890.1500042915345 L 2868.000002145767 1890.1500042915345" stroke-linejoin="round" stroke-miterlimit="10" stroke-width="10"/><path fill="none" stroke="url(#RNLGMxaJAXtq)" paint-order="fill stroke markers" d=" M 2582.5000014305115 566.0000014305115 L 2725.2500017881393 566.0000014305115 L 2725.2500017881393 1890.1500042915345 L 2868.000002145767 1890.1500042915345" stroke-linejoin="round" stroke-miterlimit="10" stroke-width="10"/><path fill="none" stroke="url(#JZkfgBadqTZg)" paint-order="fill stroke markers" d=" M 2582.5000014305115 699.0000021457672 L 2725.2500017881393 699.0000021457672 L 2725.2500017881393 1890.1500042915345 L 2868.000002145767 1890.1500042915345" stroke-linejoin="round" stroke-miterlimit="10" stroke-width="10"/><path fill="none" stroke="url(#nQTDFqeoUxpJ)" paint-order="fill stroke markers" d=" M 2582.5000014305115 699.0000021457672 L 2725.2500017881393 699.0000021457672 L 2725.2500017881393 1890.1500042915345 L 2868.000002145767 1890.1500042915345" stroke-linejoin="round" stroke-miterlimit="10" stroke-width="10"/><path fill="none" stroke="url(#KzEByuCPHDVG)" paint-order="fill stroke markers" d=" M 2582.5000014305115 832.000002861023 L 2725.2500017881393 832.000002861023 L 2725.2500017881393 1890.1500042915345 L 2868.000002145767 1890.1500042915345" stroke-linejoin="round" stroke-miterlimit="10" stroke-width="10"/><path fill="none" stroke="url(#eexTTTIAJirC)" paint-order="fill stroke markers" d=" M 2582.5000014305115 832.000002861023 L 2725.2500017881393 832.000002861023 L 2725.2500017881393 1890.1500042915345 L 2868.000002145767 1890.1500042915345" stroke-linejoin="round" stroke-miterlimit="10" stroke-width="10"/><path fill="none" stroke="url(#agIFGrfhxvpU)" paint-order="fill stroke markers" d=" M 2868.000002145767 1890.1500042915345 L 2223.7500014305115 1890.1500042915345 L 2223.7500014305115 566.0000014305115 L 1579.5000007152557 566.0000014305115" stroke-linejoin="round" stroke-miterlimit="10" stroke-width="10"/><path fill="none" stroke="url(#iHQyCopgZNpL)" paint-order="fill stroke markers" d=" M 2868.000002145767 1890.1500042915345 L 2223.7500014305115 1890.1500042915345 L 2223.7500014305115 300 L 1579.5000007152557 300" stroke-linejoin="round" stroke-miterlimit="10" stroke-width="10"/><path fill="none" stroke="url(#rqvPbrGVOznQ)" paint-order="fill stroke markers" d=" M 2868.000002145767 1890.1500042915345 L 2223.7500014305115 1890.1500042915345 L 2223.7500014305115 433.00000071525574 L 1579.5000007152557 433.00000071525574" stroke-linejoin="round" stroke-miterlimit="10" stroke-width="10"/><path fill="none" stroke="url(#kATDzmhGLHEG)" paint-order="fill stroke markers" d=" M 3785.500002145767 500 L 4061.750002503395 500 L 4061.750002503395 928.2000007152558 L 4338.000002861023 928.2000007152558" stroke-linejoin="round" stroke-miterlimit="10" stroke-width="10"/><path fill="none" stroke="url(#rzBBwtnemBDt)" paint-order="fill stroke markers" d=" M 3785.500002145767 633.0000007152557 L 4082.500002503395 633.0000007152557 L 4082.500002503395 1356.4000014305116 L 4379.500002861023 1356.4000014305116" stroke-linejoin="round" stroke-miterlimit="10" stroke-width="10"/><path fill="none" stroke="url(#WAaTUnSwSavd)" paint-order="fill stroke markers" d=" M 3785.500002145767 766.0000014305115 L 4061.750002503395 766.0000014305115 L 4061.750002503395 600 L 4338.000002861023 600" stroke-linejoin="round" stroke-miterlimit="10" stroke-width="10"/><path fill="none" stroke="url(#XDsPzgcdPvGd)" paint-order="fill stroke markers" d=" M 4612.000002861023 967.2000007152558 L 4612.000002861023 1771.250002861023 L 3509.000002145767 1771.250002861023 L 3509.000002145767 2575.3000050067903" stroke-linejoin="round" stroke-miterlimit="10" stroke-width="10"/><path fill="none" stroke="url(#yxXiHFNncyWw)" paint-order="fill stroke markers" d=" M 4612.000002861023 967.2000007152558 L 4612.000002861023 1904.2500035762787 L 3509.000002145767 1904.2500035762787 L 3509.000002145767 2841.300006437302" stroke-linejoin="round" stroke-miterlimit="10" stroke-width="10"/><path fill="none" stroke="url(#nbrhJszOAdFk)" paint-order="fill stroke markers" d=" M 4612.000002861023 967.2000007152558 L 4612.000002861023 1970.7500039339068 L 3509.000002145767 1970.7500039339068 L 3509.000002145767 2974.3000071525576" stroke-linejoin="round" stroke-miterlimit="10" stroke-width="10"/><path fill="none" stroke="url(#qOLQSkhMXKzf)" paint-order="fill stroke markers" d=" M 4612.000002861023 967.2000007152558 L 4612.000002861023 2103.7500046491623 L 3509.000002145767 2103.7500046491623 L 3509.000002145767 3240.300008583069" stroke-linejoin="round" stroke-miterlimit="10" stroke-width="10"/><path fill="none" stroke="url(#igPOyHRuNtVI)" paint-order="fill stroke markers" d=" M 4612.000002861023 967.2000007152558 L 4612.000002861023 1704.750002503395 L 3509.000002145767 1704.750002503395 L 3509.000002145767 2442.3000042915346" stroke-linejoin="round" stroke-miterlimit="10" stroke-width="10"/><path fill="none" stroke="url(#qHIyFNPleWTd)" paint-order="fill stroke markers" d=" M 4612.000002861023 967.2000007152558 L 4612.000002861023 1638.2500021457672 L 3509.000002145767 1638.2500021457672 L 3509.000002145767 2309.300003576279" stroke-linejoin="round" stroke-miterlimit="10" stroke-width="10"/><path fill="none" stroke="url(#rniAoQTrPglb)" paint-order="fill stroke markers" d=" M 4612.000002861023 967.2000007152558 L 4612.000002861023 2037.2500042915347 L 3509.000002145767 2037.2500042915347 L 3509.000002145767 3107.3000078678133" stroke-linejoin="round" stroke-miterlimit="10" stroke-width="10"/><path fill="none" stroke="url(#NrtrfPieatLq)" paint-order="fill stroke markers" d=" M 4612.000002861023 967.2000007152558 L 4612.000002861023 1505.2500014305115 L 3509.000002145767 1505.2500014305115 L 3509.000002145767 2043.3000021457674" stroke-linejoin="round" stroke-miterlimit="10" stroke-width="10"/><path fill="none" stroke="url(#eJOxZhHNMtpR)" paint-order="fill stroke markers" d=" M 4712.000002861023 1258.9000014305116 L 4712.000002861023 1113.0500010728838 L 4612.000002861023 1113.0500010728838 L 4612.000002861023 967.2000007152558" stroke-linejoin="round" stroke-miterlimit="10" stroke-width="10"/><path fill="none" stroke="url(#PPqtcGAPqVtN)" paint-order="fill stroke markers" d=" M 4612.000002861023 639 L 4612.000002861023 1673.650002861023 L 3509.000002145767 1673.650002861023 L 3509.000002145767 2708.300005722046" stroke-linejoin="round" stroke-miterlimit="10" stroke-width="10"/><path fill="none" stroke="url(#GoaRDgqnsTSr)" paint-order="fill stroke markers" d=" M 4612.000002861023 639 L 4612.000002861023 764.1000003576279 L 4612.000002861023 764.1000003576279 L 4612.000002861023 889.2000007152558" stroke-linejoin="round" stroke-miterlimit="10" stroke-width="10"/><path fill="rgb(40,167,69)" stroke="url(#GoaRDgqnsTSr)" paint-order="stroke fill markers" d=" M 4612.000002861023 561 L 4878.000002861023 561 L 4878.000002861023 561 A 8 8 0 0 1 4886.000002861023 569 L 4886.000002861023 631 L 4886.000002861023 631 A 8 8 0 0 1 4878.000002861023 639 L 4346.000002861023 639 L 4346.000002861023 639 A 8 8 0 0 1 4338.000002861023 631 L 4338.000002861023 569 L 4338.000002861023 569 A 8 8 0 0 1 4346.000002861023 561 L 4612.000002861023 561 Z" fill-opacity="1"/><text fill="rgb(255,255,255)" stroke="none" font-family="Avenir, Helvetica, Arial, sans-serif" font-size="32px" font-style="normal" font-weight="bold" text-decoration="normal" x="4612.000002861023" y="616" text-anchor="middle" dominant-baseline="text-after-edge" fill-opacity="1">default</text><path fill="rgb(40,167,69)" stroke="none" paint-order="stroke fill markers" d=" M 4612.000002861023 889.2000007152558 L 4878.000002861023 889.2000007152558 L 4878.000002861023 889.2000007152558 A 8 8 0 0 1 4886.000002861023 897.2000007152558 L 4886.000002861023 959.2000007152558 L 4886.000002861023 959.2000007152558 A 8 8 0 0 1 4878.000002861023 967.2000007152558 L 4346.000002861023 967.2000007152558 L 4346.000002861023 967.2000007152558 A 8 8 0 0 1 4338.000002861023 959.2000007152558 L 4338.000002861023 897.2000007152558 L 4338.000002861023 897.2000007152558 A 8 8 0 0 1 4346.000002861023 889.2000007152558 L 4612.000002861023 889.2000007152558 Z" fill-opacity="1"/><text fill="rgb(255,255,255)" stroke="none" font-family="Avenir, Helvetica, Arial, sans-serif" font-size="32px" font-style="normal" font-weight="bold" text-decoration="normal" x="4612.000002861023" y="944.2000007152558" text-anchor="middle" dominant-baseline="text-after-edge" fill-opacity="1">default</text><path fill="rgb(40,167,69)" stroke="none" paint-order="stroke fill markers" d=" M 4712.000002861023 1317.4000014305116 L 4978.000002861023 1317.4000014305116 L 4978.000002861023 1317.4000014305116 A 8 8 0 0 1 4986.000002861023 1325.4000014305116 L 4986.000002861023 1387.4000014305116 L 4986.000002861023 1387.4000014305116 A 8 8 0 0 1 4978.000002861023 1395.4000014305116 L 4446.000002861023 1395.4000014305116 L 4446.000002861023 1395.4000014305116 A 8 8 0 0 1 4438.000002861023 1387.4000014305116 L 4438.000002861023 1325.4000014305116 L 4438.000002861023 1325.4000014305116 A 8 8 0 0 1 4446.000002861023 1317.4000014305116 L 4712.000002861023 1317.4000014305116 Z" fill-opacity="1"/><text fill="rgb(255,255,255)" stroke="none" font-family="Avenir, Helvetica, Arial, sans-serif" font-size="32px" font-style="normal" font-weight="bold" text-decoration="normal" x="4712.000002861023" y="1372.4000014305116" text-anchor="middle" dominant-baseline="text-after-edge" fill-opacity="1">default["dennis.hoppe@dhopp…</text><path fill="rgb(255,247,224)" stroke="rgb(255,193,7)" paint-order="fill stroke markers" d=" M 3509.000002145767 461 L 3775.000002145767 461 L 3775.000002145767 461 A 8 8 0 0 1 3783.000002145767 469 L 3783.000002145767 531 L 3783.000002145767 531 A 8 8 0 0 1 3775.000002145767 539 L 3243.000002145767 539 L 3243.000002145767 539 A 8 8 0 0 1 3235.000002145767 531 L 3235.000002145767 469 L 3235.000002145767 469 A 8 8 0 0 1 3243.000002145767 461 L 3509.000002145767 461 Z" fill-opacity="1" stroke-opacity="1" stroke-miterlimit="10" stroke-width="5"/><text fill="rgb(0,0,0)" stroke="none" font-family="Avenir, Helvetica, Arial, sans-serif" font-size="32px" font-style="normal" font-weight="bold" text-decoration="normal" x="3509.000002145767" y="516" text-anchor="middle" dominant-baseline="text-after-edge" fill-opacity="1">name</text><path fill="rgb(255,247,224)" stroke="rgb(255,193,7)" paint-order="fill stroke markers" d=" M 3509.000002145767 594.0000007152557 L 3775.000002145767 594.0000007152557 L 3775.000002145767 594.0000007152557 A 8 8 0 0 1 3783.000002145767 602.0000007152557 L 3783.000002145767 664.0000007152557 L 3783.000002145767 664.0000007152557 A 8 8 0 0 1 3775.000002145767 672.0000007152557 L 3243.000002145767 672.0000007152557 L 3243.000002145767 672.0000007152557 A 8 8 0 0 1 3235.000002145767 664.0000007152557 L 3235.000002145767 602.0000007152557 L 3235.000002145767 602.0000007152557 A 8 8 0 0 1 3243.000002145767 594.0000007152557 L 3509.000002145767 594.0000007152557 Z" fill-opacity="1" stroke-opacity="1" stroke-miterlimit="10" stroke-width="5"/><text fill="rgb(0,0,0)" stroke="none" font-family="Avenir, Helvetica, Arial, sans-serif" font-size="32px" font-style="normal" font-weight="bold" text-decoration="normal" x="3509.000002145767" y="649.0000007152557" text-anchor="middle" dominant-baseline="text-after-edge" fill-opacity="1">id</text><path fill="rgb(255,247,224)" stroke="rgb(255,193,7)" paint-order="fill stroke markers" d=" M 3509.000002145767 727.0000014305115 L 3775.000002145767 727.0000014305115 L 3775.000002145767 727.0000014305115 A 8 8 0 0 1 3783.000002145767 735.0000014305115 L 3783.000002145767 797.0000014305115 L 3783.000002145767 797.0000014305115 A 8 8 0 0 1 3775.000002145767 805.0000014305115 L 3243.000002145767 805.0000014305115 L 3243.000002145767 805.0000014305115 A 8 8 0 0 1 3235.000002145767 797.0000014305115 L 3235.000002145767 735.0000014305115 L 3235.000002145767 735.0000014305115 A 8 8 0 0 1 3243.000002145767 727.0000014305115 L 3509.000002145767 727.0000014305115 Z" fill-opacity="1" stroke-opacity="1" stroke-miterlimit="10" stroke-width="5"/><text fill="rgb(0,0,0)" stroke="none" font-family="Avenir, Helvetica, Arial, sans-serif" font-size="32px" font-style="normal" font-weight="bold" text-decoration="normal" x="3509.000002145767" y="782.0000014305115" text-anchor="middle" dominant-baseline="text-after-edge" fill-opacity="1">token</text><path fill="rgb(225,240,255)" stroke="rgb(29,122,218)" paint-order="fill stroke markers" d=" M 3509.000002145767 2045.8000021457674 L 3775.000002145767 2045.8000021457674 L 3775.000002145767 2045.8000021457674 A 8 8 0 0 1 3783.000002145767 2053.8000021457674 L 3783.000002145767 2115.8000021457674 L 3783.000002145767 2115.8000021457674 A 8 8 0 0 1 3775.000002145767 2123.8000021457674 L 3243.000002145767 2123.8000021457674 L 3243.000002145767 2123.8000021457674 A 8 8 0 0 1 3235.000002145767 2115.8000021457674 L 3235.000002145767 2053.8000021457674 L 3235.000002145767 2053.8000021457674 A 8 8 0 0 1 3243.000002145767 2045.8000021457674 L 3509.000002145767 2045.8000021457674 Z" fill-opacity="1" stroke-opacity="1" stroke-miterlimit="10" stroke-width="5"/><text fill="rgb(0,0,0)" stroke="none" font-family="Avenir, Helvetica, Arial, sans-serif" font-size="32px" font-style="normal" font-weight="bold" text-decoration="normal" x="3509.000002145767" y="2100.8000021457674" text-anchor="middle" dominant-baseline="text-after-edge" fill-opacity="1">cost_estimation_enabled</text><path fill="rgb(225,240,255)" stroke="rgb(29,122,218)" paint-order="fill stroke markers" d=" M 3509.000002145767 2178.800002861023 L 3775.000002145767 2178.800002861023 L 3775.000002145767 2178.800002861023 A 8 8 0 0 1 3783.000002145767 2186.800002861023 L 3783.000002145767 2248.800002861023 L 3783.000002145767 2248.800002861023 A 8 8 0 0 1 3775.000002145767 2256.800002861023 L 3243.000002145767 2256.800002861023 L 3243.000002145767 2256.800002861023 A 8 8 0 0 1 3235.000002145767 2248.800002861023 L 3235.000002145767 2186.800002861023 L 3235.000002145767 2186.800002861023 A 8 8 0 0 1 3243.000002145767 2178.800002861023 L 3509.000002145767 2178.800002861023 Z" fill-opacity="1" stroke-opacity="1" stroke-miterlimit="10" stroke-width="5"/><text fill="rgb(0,0,0)" stroke="none" font-family="Avenir, Helvetica, Arial, sans-serif" font-size="32px" font-style="normal" font-weight="bold" text-decoration="normal" x="3509.000002145767" y="2233.800002861023" text-anchor="middle" dominant-baseline="text-after-edge" fill-opacity="1">members</text><path fill="rgb(225,240,255)" stroke="rgb(29,122,218)" paint-order="fill stroke markers" d=" M 3509.000002145767 2311.800003576279 L 3775.000002145767 2311.800003576279 L 3775.000002145767 2311.800003576279 A 8 8 0 0 1 3783.000002145767 2319.800003576279 L 3783.000002145767 2381.800003576279 L 3783.000002145767 2381.800003576279 A 8 8 0 0 1 3775.000002145767 2389.800003576279 L 3243.000002145767 2389.800003576279 L 3243.000002145767 2389.800003576279 A 8 8 0 0 1 3235.000002145767 2381.800003576279 L 3235.000002145767 2319.800003576279 L 3235.000002145767 2319.800003576279 A 8 8 0 0 1 3243.000002145767 2311.800003576279 L 3509.000002145767 2311.800003576279 Z" fill-opacity="1" stroke-opacity="1" stroke-miterlimit="10" stroke-width="5"/><text fill="rgb(0,0,0)" stroke="none" font-family="Avenir, Helvetica, Arial, sans-serif" font-size="32px" font-style="normal" font-weight="bold" text-decoration="normal" x="3509.000002145767" y="2366.800003576279" text-anchor="middle" dominant-baseline="text-after-edge" fill-opacity="1">session_timeout_minutes</text><path fill="rgb(225,240,255)" stroke="rgb(29,122,218)" paint-order="fill stroke markers" d=" M 3509.000002145767 2444.8000042915346 L 3775.000002145767 2444.8000042915346 L 3775.000002145767 2444.8000042915346 A 8 8 0 0 1 3783.000002145767 2452.8000042915346 L 3783.000002145767 2514.8000042915346 L 3783.000002145767 2514.8000042915346 A 8 8 0 0 1 3775.000002145767 2522.8000042915346 L 3243.000002145767 2522.8000042915346 L 3243.000002145767 2522.8000042915346 A 8 8 0 0 1 3235.000002145767 2514.8000042915346 L 3235.000002145767 2452.8000042915346 L 3235.000002145767 2452.8000042915346 A 8 8 0 0 1 3243.000002145767 2444.8000042915346 L 3509.000002145767 2444.8000042915346 Z" fill-opacity="1" stroke-opacity="1" stroke-miterlimit="10" stroke-width="5"/><text fill="rgb(0,0,0)" stroke="none" font-family="Avenir, Helvetica, Arial, sans-serif" font-size="32px" font-style="normal" font-weight="bold" text-decoration="normal" x="3509.000002145767" y="2499.8000042915346" text-anchor="middle" dominant-baseline="text-after-edge" fill-opacity="1">session_remember_minutes</text><path fill="rgb(225,240,255)" stroke="rgb(29,122,218)" paint-order="fill stroke markers" d=" M 3509.000002145767 2577.8000050067903 L 3775.000002145767 2577.8000050067903 L 3775.000002145767 2577.8000050067903 A 8 8 0 0 1 3783.000002145767 2585.8000050067903 L 3783.000002145767 2647.8000050067903 L 3783.000002145767 2647.8000050067903 A 8 8 0 0 1 3775.000002145767 2655.8000050067903 L 3243.000002145767 2655.8000050067903 L 3243.000002145767 2655.8000050067903 A 8 8 0 0 1 3235.000002145767 2647.8000050067903 L 3235.000002145767 2585.8000050067903 L 3235.000002145767 2585.8000050067903 A 8 8 0 0 1 3243.000002145767 2577.8000050067903 L 3509.000002145767 2577.8000050067903 Z" fill-opacity="1" stroke-opacity="1" stroke-miterlimit="10" stroke-width="5"/><text fill="rgb(0,0,0)" stroke="none" font-family="Avenir, Helvetica, Arial, sans-serif" font-size="32px" font-style="normal" font-weight="bold" text-decoration="normal" x="3509.000002145767" y="2632.8000050067903" text-anchor="middle" dominant-baseline="text-after-edge" fill-opacity="1">email</text><path fill="rgb(225,240,255)" stroke="rgb(29,122,218)" paint-order="fill stroke markers" d=" M 3509.000002145767 2710.800005722046 L 3775.000002145767 2710.800005722046 L 3775.000002145767 2710.800005722046 A 8 8 0 0 1 3783.000002145767 2718.800005722046 L 3783.000002145767 2780.800005722046 L 3783.000002145767 2780.800005722046 A 8 8 0 0 1 3775.000002145767 2788.800005722046 L 3243.000002145767 2788.800005722046 L 3243.000002145767 2788.800005722046 A 8 8 0 0 1 3235.000002145767 2780.800005722046 L 3235.000002145767 2718.800005722046 L 3235.000002145767 2718.800005722046 A 8 8 0 0 1 3243.000002145767 2710.800005722046 L 3509.000002145767 2710.800005722046 Z" fill-opacity="1" stroke-opacity="1" stroke-miterlimit="10" stroke-width="5"/><text fill="rgb(0,0,0)" stroke="none" font-family="Avenir, Helvetica, Arial, sans-serif" font-size="32px" font-style="normal" font-weight="bold" text-decoration="normal" x="3509.000002145767" y="2765.800005722046" text-anchor="middle" dominant-baseline="text-after-edge" fill-opacity="1">force_regenerate</text><path fill="rgb(225,240,255)" stroke="rgb(29,122,218)" paint-order="fill stroke markers" d=" M 3509.000002145767 2843.800006437302 L 3775.000002145767 2843.800006437302 L 3775.000002145767 2843.800006437302 A 8 8 0 0 1 3783.000002145767 2851.800006437302 L 3783.000002145767 2913.800006437302 L 3783.000002145767 2913.800006437302 A 8 8 0 0 1 3775.000002145767 2921.800006437302 L 3243.000002145767 2921.800006437302 L 3243.000002145767 2921.800006437302 A 8 8 0 0 1 3235.000002145767 2913.800006437302 L 3235.000002145767 2851.800006437302 L 3235.000002145767 2851.800006437302 A 8 8 0 0 1 3243.000002145767 2843.800006437302 L 3509.000002145767 2843.800006437302 Z" fill-opacity="1" stroke-opacity="1" stroke-miterlimit="10" stroke-width="5"/><text fill="rgb(0,0,0)" stroke="none" font-family="Avenir, Helvetica, Arial, sans-serif" font-size="32px" font-style="normal" font-weight="bold" text-decoration="normal" x="3509.000002145767" y="2898.800006437302" text-anchor="middle" dominant-baseline="text-after-edge" fill-opacity="1">name</text><path fill="rgb(225,240,255)" stroke="rgb(29,122,218)" paint-order="fill stroke markers" d=" M 3509.000002145767 2976.8000071525576 L 3775.000002145767 2976.8000071525576 L 3775.000002145767 2976.8000071525576 A 8 8 0 0 1 3783.000002145767 2984.8000071525576 L 3783.000002145767 3046.8000071525576 L 3783.000002145767 3046.8000071525576 A 8 8 0 0 1 3775.000002145767 3054.8000071525576 L 3243.000002145767 3054.8000071525576 L 3243.000002145767 3054.8000071525576 A 8 8 0 0 1 3235.000002145767 3046.8000071525576 L 3235.000002145767 2984.8000071525576 L 3235.000002145767 2984.8000071525576 A 8 8 0 0 1 3243.000002145767 2976.8000071525576 L 3509.000002145767 2976.8000071525576 Z" fill-opacity="1" stroke-opacity="1" stroke-miterlimit="10" stroke-width="5"/><text fill="rgb(0,0,0)" stroke="none" font-family="Avenir, Helvetica, Arial, sans-serif" font-size="32px" font-style="normal" font-weight="bold" text-decoration="normal" x="3509.000002145767" y="3031.8000071525576" text-anchor="middle" dominant-baseline="text-after-edge" fill-opacity="1">owners_team_saml_role_id</text><path fill="rgb(225,240,255)" stroke="rgb(29,122,218)" paint-order="fill stroke markers" d=" M 3509.000002145767 3242.800008583069 L 3775.000002145767 3242.800008583069 L 3775.000002145767 3242.800008583069 A 8 8 0 0 1 3783.000002145767 3250.800008583069 L 3783.000002145767 3312.800008583069 L 3783.000002145767 3312.800008583069 A 8 8 0 0 1 3775.000002145767 3320.800008583069 L 3243.000002145767 3320.800008583069 L 3243.000002145767 3320.800008583069 A 8 8 0 0 1 3235.000002145767 3312.800008583069 L 3235.000002145767 3250.800008583069 L 3235.000002145767 3250.800008583069 A 8 8 0 0 1 3243.000002145767 3242.800008583069 L 3509.000002145767 3242.800008583069 Z" fill-opacity="1" stroke-opacity="1" stroke-miterlimit="10" stroke-width="5"/><text fill="rgb(0,0,0)" stroke="none" font-family="Avenir, Helvetica, Arial, sans-serif" font-size="32px" font-style="normal" font-weight="bold" text-decoration="normal" x="3509.000002145767" y="3297.800008583069" text-anchor="middle" dominant-baseline="text-after-edge" fill-opacity="1">send_passing_statuses_for_untriggered_speculative_plans</text><path fill="rgb(225,240,255)" stroke="rgb(29,122,218)" paint-order="fill stroke markers" d=" M 3509.000002145767 3109.8000078678133 L 3775.000002145767 3109.8000078678133 L 3775.000002145767 3109.8000078678133 A 8 8 0 0 1 3783.000002145767 3117.8000078678133 L 3783.000002145767 3179.8000078678133 L 3783.000002145767 3179.8000078678133 A 8 8 0 0 1 3775.000002145767 3187.8000078678133 L 3243.000002145767 3187.8000078678133 L 3243.000002145767 3187.8000078678133 A 8 8 0 0 1 3235.000002145767 3179.8000078678133 L 3235.000002145767 3117.8000078678133 L 3235.000002145767 3117.8000078678133 A 8 8 0 0 1 3243.000002145767 3109.8000078678133 L 3509.000002145767 3109.8000078678133 Z" fill-opacity="1" stroke-opacity="1" stroke-miterlimit="10" stroke-width="5"/><text fill="rgb(0,0,0)" stroke="none" font-family="Avenir, Helvetica, Arial, sans-serif" font-size="32px" font-style="normal" font-weight="bold" text-decoration="normal" x="3509.000002145767" y="3164.8000078678133" text-anchor="middle" dominant-baseline="text-after-edge" fill-opacity="1">collaborator_auth_policy</text><path fill="rgb(0,0,0)" stroke="rgb(0,0,0)" paint-order="fill stroke markers" d=" M 1303.0000007152557 261 L 1569.0000007152557 261 L 1569.0000007152557 261 A 8 8 0 0 1 1577.0000007152557 269 L 1577.0000007152557 331 L 1577.0000007152557 331 A 8 8 0 0 1 1569.0000007152557 339 L 1037.0000007152557 339 L 1037.0000007152557 339 A 8 8 0 0 1 1029.0000007152557 331 L 1029.0000007152557 269 L 1029.0000007152557 269 A 8 8 0 0 1 1037.0000007152557 261 L 1303.0000007152557 261 Z" fill-opacity="1" stroke-opacity="1" stroke-miterlimit="10" stroke-width="5"/><text fill="rgb(255,255,255)" stroke="none" font-family="Avenir, Helvetica, Arial, sans-serif" font-size="32px" font-style="normal" font-weight="bold" text-decoration="normal" x="1303.0000007152557" y="316" text-anchor="middle" dominant-baseline="text-after-edge" fill-opacity="1">organization_members</text><path fill="rgb(0,0,0)" stroke="rgb(0,0,0)" paint-order="fill stroke markers" d=" M 1303.0000007152557 394.00000071525574 L 1569.0000007152557 394.00000071525574 L 1569.0000007152557 394.00000071525574 A 8 8 0 0 1 1577.0000007152557 402.00000071525574 L 1577.0000007152557 464.00000071525574 L 1577.0000007152557 464.00000071525574 A 8 8 0 0 1 1569.0000007152557 472.00000071525574 L 1037.0000007152557 472.00000071525574 L 1037.0000007152557 472.00000071525574 A 8 8 0 0 1 1029.0000007152557 464.00000071525574 L 1029.0000007152557 402.00000071525574 L 1029.0000007152557 402.00000071525574 A 8 8 0 0 1 1037.0000007152557 394.00000071525574 L 1303.0000007152557 394.00000071525574 Z" fill-opacity="1" stroke-opacity="1" stroke-miterlimit="10" stroke-width="5"/><text fill="rgb(255,255,255)" stroke="none" font-family="Avenir, Helvetica, Arial, sans-serif" font-size="32px" font-style="normal" font-weight="bold" text-decoration="normal" x="1303.0000007152557" y="449.00000071525574" text-anchor="middle" dominant-baseline="text-after-edge" fill-opacity="1">organization_name</text><path fill="rgb(0,0,0)" stroke="rgb(0,0,0)" paint-order="fill stroke markers" d=" M 1303.0000007152557 527.0000014305115 L 1569.0000007152557 527.0000014305115 L 1569.0000007152557 527.0000014305115 A 8 8 0 0 1 1577.0000007152557 535.0000014305115 L 1577.0000007152557 597.0000014305115 L 1577.0000007152557 597.0000014305115 A 8 8 0 0 1 1569.0000007152557 605.0000014305115 L 1037.0000007152557 605.0000014305115 L 1037.0000007152557 605.0000014305115 A 8 8 0 0 1 1029.0000007152557 597.0000014305115 L 1029.0000007152557 535.0000014305115 L 1029.0000007152557 535.0000014305115 A 8 8 0 0 1 1037.0000007152557 527.0000014305115 L 1303.0000007152557 527.0000014305115 Z" fill-opacity="1" stroke-opacity="1" stroke-miterlimit="10" stroke-width="5"/><text fill="rgb(255,255,255)" stroke="none" font-family="Avenir, Helvetica, Arial, sans-serif" font-size="32px" font-style="normal" font-weight="bold" text-decoration="normal" x="1303.0000007152557" y="582.0000014305115" text-anchor="middle" dominant-baseline="text-after-edge" fill-opacity="1">organization_email</text><path fill="rgb(255,247,224)" stroke="rgb(255,193,7)" paint-order="fill stroke markers" d=" M 2306.0000014305115 261 L 2572.0000014305115 261 L 2572.0000014305115 261 A 8 8 0 0 1 2580.0000014305115 269 L 2580.0000014305115 331 L 2580.0000014305115 331 A 8 8 0 0 1 2572.0000014305115 339 L 2040.0000014305115 339 L 2040.0000014305115 339 A 8 8 0 0 1 2032.0000014305115 331 L 2032.0000014305115 269 L 2032.0000014305115 269 A 8 8 0 0 1 2040.0000014305115 261 L 2306.0000014305115 261 Z" fill-opacity="1" stroke-opacity="1" stroke-miterlimit="10" stroke-width="5"/><text fill="rgb(0,0,0)" stroke="none" font-family="Avenir, Helvetica, Arial, sans-serif" font-size="32px" font-style="normal" font-weight="bold" text-decoration="normal" x="2306.0000014305115" y="316" text-anchor="middle" dominant-baseline="text-after-edge" fill-opacity="1">organization_name</text><path fill="rgb(255,247,224)" stroke="rgb(255,193,7)" paint-order="fill stroke markers" d=" M 2306.0000014305115 394.00000071525574 L 2572.0000014305115 394.00000071525574 L 2572.0000014305115 394.00000071525574 A 8 8 0 0 1 2580.0000014305115 402.00000071525574 L 2580.0000014305115 464.00000071525574 L 2580.0000014305115 464.00000071525574 A 8 8 0 0 1 2572.0000014305115 472.00000071525574 L 2040.0000014305115 472.00000071525574 L 2040.0000014305115 472.00000071525574 A 8 8 0 0 1 2032.0000014305115 464.00000071525574 L 2032.0000014305115 402.00000071525574 L 2032.0000014305115 402.00000071525574 A 8 8 0 0 1 2040.0000014305115 394.00000071525574 L 2306.0000014305115 394.00000071525574 Z" fill-opacity="1" stroke-opacity="1" stroke-miterlimit="10" stroke-width="5"/><text fill="rgb(0,0,0)" stroke="none" font-family="Avenir, Helvetica, Arial, sans-serif" font-size="32px" font-style="normal" font-weight="bold" text-decoration="normal" x="2306.0000014305115" y="449.00000071525574" text-anchor="middle" dominant-baseline="text-after-edge" fill-opacity="1">organization_membership_id</text><path fill="rgb(255,247,224)" stroke="rgb(255,193,7)" paint-order="fill stroke markers" d=" M 2306.0000014305115 527.0000014305115 L 2572.0000014305115 527.0000014305115 L 2572.0000014305115 527.0000014305115 A 8 8 0 0 1 2580.0000014305115 535.0000014305115 L 2580.0000014305115 597.0000014305115 L 2580.0000014305115 597.0000014305115 A 8 8 0 0 1 2572.0000014305115 605.0000014305115 L 2040.0000014305115 605.0000014305115 L 2040.0000014305115 605.0000014305115 A 8 8 0 0 1 2032.0000014305115 597.0000014305115 L 2032.0000014305115 535.0000014305115 L 2032.0000014305115 535.0000014305115 A 8 8 0 0 1 2040.0000014305115 527.0000014305115 L 2306.0000014305115 527.0000014305115 Z" fill-opacity="1" stroke-opacity="1" stroke-miterlimit="10" stroke-width="5"/><text fill="rgb(0,0,0)" stroke="none" font-family="Avenir, Helvetica, Arial, sans-serif" font-size="32px" font-style="normal" font-weight="bold" text-decoration="normal" x="2306.0000014305115" y="582.0000014305115" text-anchor="middle" dominant-baseline="text-after-edge" fill-opacity="1">organization_membership_user_id</text><path fill="rgb(255,247,224)" stroke="rgb(255,193,7)" paint-order="fill stroke markers" d=" M 2306.0000014305115 660.0000021457672 L 2572.0000014305115 660.0000021457672 L 2572.0000014305115 660.0000021457672 A 8 8 0 0 1 2580.0000014305115 668.0000021457672 L 2580.0000014305115 730.0000021457672 L 2580.0000014305115 730.0000021457672 A 8 8 0 0 1 2572.0000014305115 738.0000021457672 L 2040.0000014305115 738.0000021457672 L 2040.0000014305115 738.0000021457672 A 8 8 0 0 1 2032.0000014305115 730.0000021457672 L 2032.0000014305115 668.0000021457672 L 2032.0000014305115 668.0000021457672 A 8 8 0 0 1 2040.0000014305115 660.0000021457672 L 2306.0000014305115 660.0000021457672 Z" fill-opacity="1" stroke-opacity="1" stroke-miterlimit="10" stroke-width="5"/><text fill="rgb(0,0,0)" stroke="none" font-family="Avenir, Helvetica, Arial, sans-serif" font-size="32px" font-style="normal" font-weight="bold" text-decoration="normal" x="2306.0000014305115" y="715.0000021457672" text-anchor="middle" dominant-baseline="text-after-edge" fill-opacity="1">organization_token_id</text><path fill="rgb(255,247,224)" stroke="rgb(255,193,7)" paint-order="fill stroke markers" d=" M 2306.0000014305115 793.000002861023 L 2572.0000014305115 793.000002861023 L 2572.0000014305115 793.000002861023 A 8 8 0 0 1 2580.0000014305115 801.000002861023 L 2580.0000014305115 863.000002861023 L 2580.0000014305115 863.000002861023 A 8 8 0 0 1 2572.0000014305115 871.000002861023 L 2040.0000014305115 871.000002861023 L 2040.0000014305115 871.000002861023 A 8 8 0 0 1 2032.0000014305115 863.000002861023 L 2032.0000014305115 801.000002861023 L 2032.0000014305115 801.000002861023 A 8 8 0 0 1 2040.0000014305115 793.000002861023 L 2306.0000014305115 793.000002861023 Z" fill-opacity="1" stroke-opacity="1" stroke-miterlimit="10" stroke-width="5"/><text fill="rgb(0,0,0)" stroke="none" font-family="Avenir, Helvetica, Arial, sans-serif" font-size="32px" font-style="normal" font-weight="bold" text-decoration="normal" x="2306.0000014305115" y="848.000002861023" text-anchor="middle" dominant-baseline="text-after-edge" fill-opacity="1">organization_token_token</text><path fill="rgb(225,240,255)" stroke="rgb(29,122,218)" paint-order="fill stroke markers" d=" M 300 261 L 566 261 L 566 261 A 8 8 0 0 1 574 269 L 574 331 L 574 331 A 8 8 0 0 1 566 339 L 34 339 L 34 339 A 8 8 0 0 1 26 331 L 26 269 L 26 269 A 8 8 0 0 1 34 261 L 300 261 Z" fill-opacity="1" stroke-opacity="1" stroke-miterlimit="10" stroke-width="5"/><text fill="rgb(0,0,0)" stroke="none" font-family="Avenir, Helvetica, Arial, sans-serif" font-size="32px" font-style="normal" font-weight="bold" text-decoration="normal" x="300" y="316" text-anchor="middle" dominant-baseline="text-after-edge" fill-opacity="1">token</text><g transform="scale(5,5) translate(-56.2,-11)"/></g></svg>