<svg version="1.1" xmlns="http://www.w3.org/2000/svg" xmlns:xlink="http://www.w3.org/1999/xlink" width="666.6" height="830.4000000000001"><defs><linearGradient id="mMTrdiaUARJW" x1="2306.0000014305115px" x2="1001.0000003576279px" y1="341.5px" y2="1048.500002145767px" gradientUnits="userSpaceOnUse"><stop offset="0" stop-color="rgb(255,193,7)" stop-opacity="1"/><stop offset="1" stop-color="rgb(132,80,186)" stop-opacity="1"/></linearGradient><linearGradient id="EXCKVqBVGXXf" x1="2306.0000014305115px" x2="1001.0000003576279px" y1="341.5px" y2="1048.500002145767px" gradientUnits="userSpaceOnUse"><stop offset="0" stop-color="rgb(255,193,7)" stop-opacity="1"/><stop offset="1" stop-color="rgb(132,80,186)" stop-opacity="1"/></linearGradient><linearGradient id="UsKEGEAHzhgw" x1="2306.0000014305115px" x2="1001.0000003576279px" y1="474.50000071525574px" y2="1048.500002145767px" gradientUnits="userSpaceOnUse"><stop offset="0" stop-color="rgb(255,193,7)" stop-opacity="1"/><stop offset="1" stop-color="rgb(132,80,186)" stop-opacity="1"/></linearGradient><linearGradient id="LlosNqpTkuLf" x1="2306.0000014305115px" x2="1001.0000003576279px" y1="474.50000071525574px" y2="1048.500002145767px" gradientUnits="userSpaceOnUse"><stop offset="0" stop-color="rgb(255,193,7)" stop-opacity="1"/><stop offset="1" stop-color="rgb(132,80,186)" stop-opacity="1"/></linearGradient><linearGradient id="raWVHbkraQsp" x1="2306.0000014305115px" x2="1001.0000003576279px" y1="607.5000014305115px" y2="1048.500002145767px" gradientUnits="userSpaceOnUse"><stop offset="0" stop-color="rgb(255,193,7)" stop-opacity="1"/><stop offset="1" stop-color="rgb(132,80,186)" stop-opacity="1"/></linearGradient><linearGradient id="vygOxnkwEGOX" x1="2306.0000014305115px" x2="1001.0000003576279px" y1="607.5000014305115px" y2="1048.500002145767px" gradientUnits="userSpaceOnUse"><stop offset="0" stop-color="rgb(255,193,7)" stop-opacity="1"/><stop offset="1" stop-color="rgb(132,80,186)" stop-opacity="1"/></linearGradient><linearGradient id="EQMIlncANuQS" x1="1001.0000003576279px" x2="1303.0000007152557px" y1="1048.500002145767px" y2="474.50000071525574px" gradientUnits="userSpaceOnUse"><stop offset="0" stop-color="rgb(132,80,186)" stop-opacity="1"/><stop offset="1" stop-color="rgb(0,0,0)" stop-opacity="1"/></linearGradient><linearGradient id="ggrhXrfivOTR" x1="1001.0000003576279px" x2="1303.0000007152557px" y1="1048.500002145767px" y2="341.5px" gradientUnits="userSpaceOnUse"><stop offset="0" stop-color="rgb(132,80,186)" stop-opacity="1"/><stop offset="1" stop-color="rgb(0,0,0)" stop-opacity="1"/></linearGradient><linearGradient id="wfJIzXTXEPDi" x1="776.5px" x2="1329.0000007152557px" y1="1299.0000021457672px" y2="1727.200002861023px" gradientUnits="userSpaceOnUse"><stop offset="0" stop-color="rgb(255,193,7)" stop-opacity="1"/><stop offset="1" stop-color="rgb(211,211,211)" stop-opacity="1"/></linearGradient><linearGradient id="qtgZLnVXJTpI" x1="776.5px" x2="1329.0000007152557px" y1="1565.0000035762787px" y2="1399.0000021457672px" gradientUnits="userSpaceOnUse"><stop offset="0" stop-color="rgb(255,193,7)" stop-opacity="1"/><stop offset="1" stop-color="rgb(211,211,211)" stop-opacity="1"/></linearGradient><linearGradient id="rFVNvrrsFara" x1="1603.0000007152557px" x2="500px" y1="1766.200002861023px" y2="2579.9000050067903px" gradientUnits="userSpaceOnUse"><stop offset="0" stop-color="rgb(211,211,211)" stop-opacity="1"/><stop offset="1" stop-color="rgb(29,122,218)" stop-opacity="1"/></linearGradient><linearGradient id="vJxZqJdskpue" x1="1603.0000007152557px" x2="500px" y1="1766.200002861023px" y2="2446.9000042915345px" gradientUnits="userSpaceOnUse"><stop offset="0" stop-color="rgb(211,211,211)" stop-opacity="1"/><stop offset="1" stop-color="rgb(29,122,218)" stop-opacity="1"/></linearGradient><linearGradient id="zTBgyWOHVDNO" x1="1329.0000007152557px" x2="776.5px" y1="1727.200002861023px" y2="2355.400003576279px" gradientUnits="userSpaceOnUse"><stop offset="0" stop-color="rgb(211,211,211)" stop-opacity="1"/><stop offset="1" stop-color="rgb(29,122,218)" stop-opacity="1"/></linearGradient><linearGradient id="QrWJEAAZonpD" x1="1603.0000007152557px" x2="500px" y1="1766.200002861023px" y2="3111.900007867813px" gradientUnits="userSpaceOnUse"><stop offset="0" stop-color="rgb(211,211,211)" stop-opacity="1"/><stop offset="1" stop-color="rgb(29,122,218)" stop-opacity="1"/></linearGradient><linearGradient id="SrZohUhnneoE" x1="1603.0000007152557px" x2="500px" y1="1766.200002861023px" y2="3510.9000100135804px" gradientUnits="userSpaceOnUse"><stop offset="0" stop-color="rgb(211,211,211)" stop-opacity="1"/><stop offset="1" stop-color="rgb(29,122,218)" stop-opacity="1"/></linearGradient><linearGradient id="bDbfAgaqJxMh" x1="1603.0000007152557px" x2="500px" y1="1766.200002861023px" y2="3377.9000092983247px" gradientUnits="userSpaceOnUse"><stop offset="0" stop-color="rgb(211,211,211)" stop-opacity="1"/><stop offset="1" stop-color="rgb(29,122,218)" stop-opacity="1"/></linearGradient><linearGradient id="txDlHTygxrZI" x1="1603.0000007152557px" x2="500px" y1="1766.200002861023px" y2="2845.9000064373017px" gradientUnits="userSpaceOnUse"><stop offset="0" stop-color="rgb(211,211,211)" stop-opacity="1"/><stop offset="1" stop-color="rgb(29,122,218)" stop-opacity="1"/></linearGradient><linearGradient id="EhnvSIgmNNnI" x1="1603.0000007152557px" x2="500px" y1="1766.200002861023px" y2="2978.9000071525575px" gradientUnits="userSpaceOnUse"><stop offset="0" stop-color="rgb(211,211,211)" stop-opacity="1"/><stop offset="1" stop-color="rgb(29,122,218)" stop-opacity="1"/></linearGradient><linearGradient id="vlXembJRhrbm" x1="1603.0000007152557px" x2="500px" y1="1438.0000021457672px" y2="3244.900008583069px" gradientUnits="userSpaceOnUse"><stop offset="0" stop-color="rgb(211,211,211)" stop-opacity="1"/><stop offset="1" stop-color="rgb(29,122,218)" stop-opacity="1"/></linearGradient><linearGradient id="vTuWPcPUogaV" x1="1603.0000007152557px" x2="1603.0000007152557px" y1="1438.0000021457672px" y2="1688.200002861023px" gradientUnits="userSpaceOnUse"><stop offset="0" stop-color="rgb(211,211,211)" stop-opacity="1"/><stop offset="1" stop-color="rgb(211,211,211)" stop-opacity="1"/></linearGradient></defs><g transform="translate(89.10000000000001,9.200000000000001) scale(0.2,0.2)"><path fill="rgb(244,236,255)" stroke="rgb(255,255,255)" paint-order="fill stroke markers" d=" M 1220.7500007152557 -44 L 2877.0000014305115 -44 L 2877.0000014305115 -44 A 8 8 0 0 1 2885.0000014305115 -36 L 2885.0000014305115 4095.90001001358 L 2885.0000014305115 4095.90001001358 A 8 8 0 0 1 2877.0000014305115 4103.90001001358 L -435.5 4103.90001001358 L -435.5 4103.90001001358 A 8 8 0 0 1 -443.5 4095.90001001358 L -443.5 -36 L -443.5 -36 A 8 8 0 0 1 -435.5 -44 L 1220.7500007152557 -44 Z" fill-opacity="1" stroke-opacity="1" stroke-miterlimit="10" stroke-width="2"/><text fill="rgb(0,0,0)" stroke="none" font-family="Avenir, Helvetica, Arial, sans-serif" font-size="32px" font-style="normal" font-weight="bold" text-decoration="normal" x="1220.7500007152557" y="31" text-anchor="middle" dominant-baseline="text-after-edge" fill-opacity="1">.</text><path fill="rgb(255,255,255)" stroke="rgb(211,211,211)" paint-order="fill stroke markers" d=" M 2306.0000014305115 157.5 L 2675.5000014305115 157.5 L 2675.5000014305115 157.5 A 8 8 0 0 1 2683.5000014305115 165.5 L 2683.5000014305115 700.5000014305115 L 2683.5000014305115 700.5000014305115 A 8 8 0 0 1 2675.5000014305115 708.5000014305115 L 1936.5000014305115 708.5000014305115 L 1936.5000014305115 708.5000014305115 A 8 8 0 0 1 1928.5000014305115 700.5000014305115 L 1928.5000014305115 165.5 L 1928.5000014305115 165.5 A 8 8 0 0 1 1936.5000014305115 157.5 L 2306.0000014305115 157.5 Z" fill-opacity="1" stroke-opacity="1" stroke-miterlimit="10"/><text fill="rgb(0,0,0)" stroke="none" font-family="Avenir, Helvetica, Arial, sans-serif" font-size="32px" font-style="normal" font-weight="bold" text-decoration="normal" x="2306.0000014305115" y="232.5" text-anchor="middle" dominant-baseline="text-after-edge" fill-opacity="1">outputs.tf</text><path fill="rgb(255,255,255)" stroke="rgb(211,211,211)" paint-order="fill stroke markers" d=" M 300 157.5 L 669.5 157.5 L 669.5 157.5 A 8 8 0 0 1 677.5 165.5 L 677.5 434.5 L 677.5 434.5 A 8 8 0 0 1 669.5 442.5 L -69.5 442.5 L -69.5 442.5 A 8 8 0 0 1 -77.5 434.5 L -77.5 165.5 L -77.5 165.5 A 8 8 0 0 1 -69.5 157.5 L 300 157.5 Z" fill-opacity="1" stroke-opacity="1" stroke-miterlimit="10"/><text fill="rgb(0,0,0)" stroke="none" font-family="Avenir, Helvetica, Arial, sans-serif" font-size="32px" font-style="normal" font-weight="bold" text-decoration="normal" x="300" y="232.5" text-anchor="middle" dominant-baseline="text-after-edge" fill-opacity="1">variables.tf</text><path fill="rgb(255,255,255)" stroke="rgb(211,211,211)" paint-order="fill stroke markers" d=" M 1001.0000003576279 947.5000021457672 L 2236.0000007152557 947.5000021457672 L 2236.0000007152557 947.5000021457672 A 8 8 0 0 1 2244.0000007152557 955.5000021457672 L 2244.0000007152557 3894.40001001358 L 2244.0000007152557 3894.40001001358 A 8 8 0 0 1 2236.0000007152557 3902.40001001358 L -234 3902.40001001358 L -234 3902.40001001358 A 8 8 0 0 1 -242 3894.40001001358 L -242 955.5000021457672 L -242 955.5000021457672 A 8 8 0 0 1 -234 947.5000021457672 L 1001.0000003576279 947.5000021457672 Z" fill-opacity="1" stroke-opacity="1" stroke-miterlimit="10"/><text fill="rgb(0,0,0)" stroke="none" font-family="Avenir, Helvetica, Arial, sans-serif" font-size="32px" font-style="normal" font-weight="bold" text-decoration="normal" x="1001.0000003576279" y="1022.5000021457672" text-anchor="middle" dominant-baseline="text-after-edge" fill-opacity="1">main.tf</text><path fill="rgb(255,255,255)" stroke="rgb(211,211,211)" paint-order="fill stroke markers" d=" M 1303.0000007152557 157.5 L 1672.5000007152557 157.5 L 1672.5000007152557 157.5 A 8 8 0 0 1 1680.5000007152557 165.5 L 1680.5000007152557 567.5000007152557 L 1680.5000007152557 567.5000007152557 A 8 8 0 0 1 1672.5000007152557 575.5000007152557 L 933.5000007152557 575.5000007152557 L 933.5000007152557 575.5000007152557 A 8 8 0 0 1 925.5000007152557 567.5000007152557 L 925.5000007152557 165.5 L 925.5000007152557 165.5 A 8 8 0 0 1 933.5000007152557 157.5 L 1303.0000007152557 157.5 Z" fill-opacity="1" stroke-opacity="1" stroke-miterlimit="10"/><text fill="rgb(0,0,0)" stroke="none" font-family="Avenir, Helvetica, Arial, sans-serif" font-size="32px" font-style="normal" font-weight="bold" text-decoration="normal" x="1303.0000007152557" y="232.5" text-anchor="middle" dominant-baseline="text-after-edge" fill-opacity="1">unknown file</text><path fill="rgb(255,255,255)" stroke="rgb(132,80,186)" paint-order="fill stroke markers" d=" M 1001.0000003576279 1053.500002145767 L 2130.0000007152557 1053.500002145767 L 2130.0000007152557 1053.500002145767 A 8 8 0 0 1 2138.0000007152557 1061.500002145767 L 2138.0000007152557 3788.40001001358 L 2138.0000007152557 3788.40001001358 A 8 8 0 0 1 2130.0000007152557 3796.40001001358 L -128 3796.40001001358 L -128 3796.40001001358 A 8 8 0 0 1 -136 3788.40001001358 L -136 1061.500002145767 L -136 1061.500002145767 A 8 8 0 0 1 -128 1053.500002145767 L 1001.0000003576279 1053.500002145767 Z" fill-opacity="1" stroke-opacity="1" stroke-miterlimit="10" stroke-width="10"/><text fill="rgb(132,80,186)" stroke="none" font-family="Avenir, Helvetica, Arial, sans-serif" font-size="32px" font-style="normal" font-weight="bold" text-decoration="normal" x="1001.0000003576279" y="1113.500002145767" text-anchor="middle" dominant-baseline="text-after-edge" fill-opacity="1">tfe_organization</text><path fill="rgb(255,255,255)" stroke="rgb(211,211,211)" paint-order="fill stroke markers" d=" M 1603.0000007152557 1155.0000021457672 L 2028.5000007152557 1155.0000021457672 L 2028.5000007152557 1155.0000021457672 A 8 8 0 0 1 2036.5000007152557 1163.0000021457672 L 2036.5000007152557 1917.7000028610228 L 2036.5000007152557 1917.7000028610228 A 8 8 0 0 1 2028.5000007152557 1925.7000028610228 L 1177.5000007152557 1925.7000028610228 L 1177.5000007152557 1925.7000028610228 A 8 8 0 0 1 1169.5000007152557 1917.7000028610228 L 1169.5000007152557 1163.0000021457672 L 1169.5000007152557 1163.0000021457672 A 8 8 0 0 1 1177.5000007152557 1155.0000021457672 L 1603.0000007152557 1155.0000021457672 Z" fill-opacity="1" stroke-opacity="1" stroke-miterlimit="10"/><text fill="rgb(0,0,0)" stroke="none" font-family="Avenir, Helvetica, Arial, sans-serif" font-size="32px" font-style="normal" font-weight="bold" text-decoration="normal" x="1603.0000007152557" y="1230.0000021457672" text-anchor="middle" dominant-baseline="text-after-edge" fill-opacity="1">main.tf</text><path fill="rgb(255,255,255)" stroke="rgb(211,211,211)" paint-order="fill stroke markers" d=" M 500 1156.5000021457672 L 869.5 1156.5000021457672 L 869.5 1156.5000021457672 A 8 8 0 0 1 877.5 1164.5000021457672 L 877.5 1699.5000035762787 L 877.5 1699.5000035762787 A 8 8 0 0 1 869.5 1707.5000035762787 L 130.5 1707.5000035762787 L 130.5 1707.5000035762787 A 8 8 0 0 1 122.5 1699.5000035762787 L 122.5 1164.5000021457672 L 122.5 1164.5000021457672 A 8 8 0 0 1 130.5 1156.5000021457672 L 500 1156.5000021457672 Z" fill-opacity="1" stroke-opacity="1" stroke-miterlimit="10"/><text fill="rgb(0,0,0)" stroke="none" font-family="Avenir, Helvetica, Arial, sans-serif" font-size="32px" font-style="normal" font-weight="bold" text-decoration="normal" x="500" y="1231.5000021457672" text-anchor="middle" dominant-baseline="text-after-edge" fill-opacity="1">outputs.tf</text><path fill="rgb(255,255,255)" stroke="rgb(211,211,211)" paint-order="fill stroke markers" d=" M 500 2212.900003576279 L 1026.5 2212.900003576279 L 1026.5 2212.900003576279 A 8 8 0 0 1 1034.5 2220.900003576279 L 1034.5 3686.9000100135804 L 1034.5 3686.9000100135804 A 8 8 0 0 1 1026.5 3694.9000100135804 L -26.5 3694.9000100135804 L -26.5 3694.9000100135804 A 8 8 0 0 1 -34.5 3686.9000100135804 L -34.5 2220.900003576279 L -34.5 2220.900003576279 A 8 8 0 0 1 -26.5 2212.900003576279 L 500 2212.900003576279 Z" fill-opacity="1" stroke-opacity="1" stroke-miterlimit="10"/><text fill="rgb(0,0,0)" stroke="none" font-family="Avenir, Helvetica, Arial, sans-serif" font-size="32px" font-style="normal" font-weight="bold" text-decoration="normal" x="500" y="2287.900003576279" text-anchor="middle" dominant-baseline="text-after-edge" fill-opacity="1">variables.tf</text><path fill="rgb(255,255,255)" stroke="rgb(0,0,0)" paint-order="fill stroke markers" d=" M 1603.0000007152557 1304.0000021457672 L 1925.0000007152557 1304.0000021457672 L 1925.0000007152557 1304.0000021457672 A 8 8 0 0 1 1933.0000007152557 1312.0000021457672 L 1933.0000007152557 1486.0000021457672 L 1933.0000007152557 1486.0000021457672 A 8 8 0 0 1 1925.0000007152557 1494.0000021457672 L 1281.0000007152557 1494.0000021457672 L 1281.0000007152557 1494.0000021457672 A 8 8 0 0 1 1273.0000007152557 1486.0000021457672 L 1273.0000007152557 1312.0000021457672 L 1273.0000007152557 1312.0000021457672 A 8 8 0 0 1 1281.0000007152557 1304.0000021457672 L 1603.0000007152557 1304.0000021457672 Z" fill-opacity="1" stroke-opacity="1" stroke-miterlimit="10" stroke-width="5"/><rect fill="rgb(255,255,255)" stroke="none" x="1397.5000007152557" y="1255.0000021457672" width="411" height="96" fill-opacity="1"/><text fill="rgb(0,0,0)" stroke="none" font-family="Avenir, Helvetica, Arial, sans-serif" font-size="32px" font-style="normal" font-weight="bold" text-decoration="normal" x="1603.0000007152557" y="1319.0000021457672" text-anchor="middle" dominant-baseline="text-after-edge" fill-opacity="1">tfe_organization_token</text><path fill="rgb(255,255,255)" stroke="rgb(0,0,0)" paint-order="fill stroke markers" d=" M 1603.0000007152557 1632.200002861023 L 1925.0000007152557 1632.200002861023 L 1925.0000007152557 1632.200002861023 A 8 8 0 0 1 1933.0000007152557 1640.200002861023 L 1933.0000007152557 1814.200002861023 L 1933.0000007152557 1814.200002861023 A 8 8 0 0 1 1925.0000007152557 1822.200002861023 L 1281.0000007152557 1822.200002861023 L 1281.0000007152557 1822.200002861023 A 8 8 0 0 1 1273.0000007152557 1814.200002861023 L 1273.0000007152557 1640.200002861023 L 1273.0000007152557 1640.200002861023 A 8 8 0 0 1 1281.0000007152557 1632.200002861023 L 1603.0000007152557 1632.200002861023 Z" fill-opacity="1" stroke-opacity="1" stroke-miterlimit="10" stroke-width="5"/><rect fill="rgb(255,255,255)" stroke="none" x="1448.5000007152557" y="1583.200002861023" width="309" height="96" fill-opacity="1"/><text fill="rgb(0,0,0)" stroke="none" font-family="Avenir, Helvetica, Arial, sans-serif" font-size="32px" font-style="normal" font-weight="bold" text-decoration="normal" x="1603.0000007152557" y="1647.200002861023" text-anchor="middle" dominant-baseline="text-after-edge" fill-opacity="1">tfe_organization</text><path fill="none" stroke="url(#mMTrdiaUARJW)" paint-order="fill stroke markers" d=" M 2306.0000014305115 341.5 L 2306.0000014305115 695.0000010728835 L 1001.0000003576279 695.0000010728835 L 1001.0000003576279 1048.500002145767" stroke-linejoin="round" stroke-miterlimit="10" stroke-width="10"/><path fill="none" stroke="url(#EXCKVqBVGXXf)" paint-order="fill stroke markers" d=" M 2306.0000014305115 341.5 L 2306.0000014305115 695.0000010728835 L 1001.0000003576279 695.0000010728835 L 1001.0000003576279 1048.500002145767" stroke-linejoin="round" stroke-miterlimit="10" stroke-width="10"/><path fill="none" stroke="url(#UsKEGEAHzhgw)" paint-order="fill stroke markers" d=" M 2306.0000014305115 474.50000071525574 L 2306.0000014305115 761.5000014305114 L 1001.0000003576279 761.5000014305114 L 1001.0000003576279 1048.500002145767" stroke-linejoin="round" stroke-miterlimit="10" stroke-width="10"/><path fill="none" stroke="url(#LlosNqpTkuLf)" paint-order="fill stroke markers" d=" M 2306.0000014305115 474.50000071525574 L 2306.0000014305115 761.5000014305114 L 1001.0000003576279 761.5000014305114 L 1001.0000003576279 1048.500002145767" stroke-linejoin="round" stroke-miterlimit="10" stroke-width="10"/><path fill="none" stroke="url(#raWVHbkraQsp)" paint-order="fill stroke markers" d=" M 2306.0000014305115 607.5000014305115 L 2306.0000014305115 828.0000017881392 L 1001.0000003576279 828.0000017881392 L 1001.0000003576279 1048.500002145767" stroke-linejoin="round" stroke-miterlimit="10" stroke-width="10"/><path fill="none" stroke="url(#vygOxnkwEGOX)" paint-order="fill stroke markers" d=" M 2306.0000014305115 607.5000014305115 L 2306.0000014305115 828.0000017881392 L 1001.0000003576279 828.0000017881392 L 1001.0000003576279 1048.500002145767" stroke-linejoin="round" stroke-miterlimit="10" stroke-width="10"/><path fill="none" stroke="url(#EQMIlncANuQS)" paint-order="fill stroke markers" d=" M 1001.0000003576279 1048.500002145767 L 1001.0000003576279 761.5000014305112 L 1303.0000007152557 761.5000014305112 L 1303.0000007152557 474.50000071525574" stroke-linejoin="round" stroke-miterlimit="10" stroke-width="10"/><path fill="none" stroke="url(#ggrhXrfivOTR)" paint-order="fill stroke markers" d=" M 1001.0000003576279 1048.500002145767 L 1001.0000003576279 695.0000010728834 L 1303.0000007152557 695.0000010728834 L 1303.0000007152557 341.5" stroke-linejoin="round" stroke-miterlimit="10" stroke-width="10"/><path fill="none" stroke="url(#wfJIzXTXEPDi)" paint-order="fill stroke markers" d=" M 776.5 1299.0000021457672 L 1052.7500003576279 1299.0000021457672 L 1052.7500003576279 1727.200002861023 L 1329.0000007152557 1727.200002861023" stroke-linejoin="round" stroke-miterlimit="10" stroke-width="10"/><path fill="none" stroke="url(#qtgZLnVXJTpI)" paint-order="fill stroke markers" d=" M 776.5 1565.0000035762787 L 1052.7500003576279 1565.0000035762787 L 1052.7500003576279 1399.0000021457672 L 1329.0000007152557 1399.0000021457672" stroke-linejoin="round" stroke-miterlimit="10" stroke-width="10"/><path fill="none" stroke="url(#rFVNvrrsFara)" paint-order="fill stroke markers" d=" M 1603.0000007152557 1766.200002861023 L 1603.0000007152557 2173.0500039339067 L 500 2173.0500039339067 L 500 2579.9000050067903" stroke-linejoin="round" stroke-miterlimit="10" stroke-width="10"/><path fill="none" stroke="url(#vJxZqJdskpue)" paint-order="fill stroke markers" d=" M 1603.0000007152557 1766.200002861023 L 1603.0000007152557 2106.550003576279 L 500 2106.550003576279 L 500 2446.9000042915345" stroke-linejoin="round" stroke-miterlimit="10" stroke-width="10"/><path fill="none" stroke="url(#zTBgyWOHVDNO)" paint-order="fill stroke markers" d=" M 1329.0000007152557 1727.200002861023 L 1052.7500003576279 1727.200002861023 L 1052.7500003576279 2355.400003576279 L 776.5 2355.400003576279" stroke-linejoin="round" stroke-miterlimit="10" stroke-width="10"/><path fill="none" stroke="url(#QrWJEAAZonpD)" paint-order="fill stroke markers" d=" M 1603.0000007152557 1766.200002861023 L 1603.0000007152557 2439.050005364418 L 500 2439.050005364418 L 500 3111.900007867813" stroke-linejoin="round" stroke-miterlimit="10" stroke-width="10"/><path fill="none" stroke="url(#SrZohUhnneoE)" paint-order="fill stroke markers" d=" M 1603.0000007152557 1766.200002861023 L 1603.0000007152557 2638.550006437302 L 500 2638.550006437302 L 500 3510.9000100135804" stroke-linejoin="round" stroke-miterlimit="10" stroke-width="10"/><path fill="none" stroke="url(#bDbfAgaqJxMh)" paint-order="fill stroke markers" d=" M 1603.0000007152557 1766.200002861023 L 1603.0000007152557 2572.050006079674 L 500 2572.050006079674 L 500 3377.9000092983247" stroke-linejoin="round" stroke-miterlimit="10" stroke-width="10"/><path fill="none" stroke="url(#txDlHTygxrZI)" paint-order="fill stroke markers" d=" M 1603.0000007152557 1766.200002861023 L 1603.0000007152557 2306.0500046491625 L 500 2306.0500046491625 L 500 2845.9000064373017" stroke-linejoin="round" stroke-miterlimit="10" stroke-width="10"/><path fill="none" stroke="url(#EhnvSIgmNNnI)" paint-order="fill stroke markers" d=" M 1603.0000007152557 1766.200002861023 L 1603.0000007152557 2372.5500050067903 L 500 2372.5500050067903 L 500 2978.9000071525575" stroke-linejoin="round" stroke-miterlimit="10" stroke-width="10"/><path fill="none" stroke="url(#vlXembJRhrbm)" paint-order="fill stroke markers" d=" M 1603.0000007152557 1438.0000021457672 L 1603.0000007152557 2341.450005364418 L 500 2341.450005364418 L 500 3244.900008583069" stroke-linejoin="round" stroke-miterlimit="10" stroke-width="10"/><path fill="none" stroke="url(#vTuWPcPUogaV)" paint-order="fill stroke markers" d=" M 1603.0000007152557 1438.0000021457672 L 1603.0000007152557 1563.100002503395 L 1603.0000007152557 1563.100002503395 L 1603.0000007152557 1688.200002861023" stroke-linejoin="round" stroke-miterlimit="10" stroke-width="10"/><path fill="rgb(255,247,224)" stroke="rgb(255,193,7)" paint-order="fill stroke markers" d=" M 2306.0000014305115 261 L 2572.0000014305115 261 L 2572.0000014305115 261 A 8 8 0 0 1 2580.0000014305115 269 L 2580.0000014305115 331 L 2580.0000014305115 331 A 8 8 0 0 1 2572.0000014305115 339 L 2040.0000014305115 339 L 2040.0000014305115 339 A 8 8 0 0 1 2032.0000014305115 331 L 2032.0000014305115 269 L 2032.0000014305115 269 A 8 8 0 0 1 2040.0000014305115 261 L 2306.0000014305115 261 Z" fill-opacity="1" stroke-opacity="1" stroke-miterlimit="10" stroke-width="5"/><text fill="rgb(0,0,0)" stroke="none" font-family="Avenir, Helvetica, Arial, sans-serif" font-size="32px" font-style="normal" font-weight="bold" text-decoration="normal" x="2306.0000014305115" y="316" text-anchor="middle" dominant-baseline="text-after-edge" fill-opacity="1">organization_name</text><path fill="rgb(255,247,224)" stroke="rgb(255,193,7)" paint-order="fill stroke markers" d=" M 2306.0000014305115 394.00000071525574 L 2572.0000014305115 394.00000071525574 L 2572.0000014305115 394.00000071525574 A 8 8 0 0 1 2580.0000014305115 402.00000071525574 L 2580.0000014305115 464.00000071525574 L 2580.0000014305115 464.00000071525574 A 8 8 0 0 1 2572.0000014305115 472.00000071525574 L 2040.0000014305115 472.00000071525574 L 2040.0000014305115 472.00000071525574 A 8 8 0 0 1 2032.0000014305115 464.00000071525574 L 2032.0000014305115 402.00000071525574 L 2032.0000014305115 402.00000071525574 A 8 8 0 0 1 2040.0000014305115 394.00000071525574 L 2306.0000014305115 394.00000071525574 Z" fill-opacity="1" stroke-opacity="1" stroke-miterlimit="10" stroke-width="5"/><text fill="rgb(0,0,0)" stroke="none" font-family="Avenir, Helvetica, Arial, sans-serif" font-size="32px" font-style="normal" font-weight="bold" text-decoration="normal" x="2306.0000014305115" y="449.00000071525574" text-anchor="middle" dominant-baseline="text-after-edge" fill-opacity="1">organization_token_id</text><path fill="rgb(255,247,224)" stroke="rgb(255,193,7)" paint-order="fill stroke markers" d=" M 2306.0000014305115 527.0000014305115 L 2572.0000014305115 527.0000014305115 L 2572.0000014305115 527.0000014305115 A 8 8 0 0 1 2580.0000014305115 535.0000014305115 L 2580.0000014305115 597.0000014305115 L 2580.0000014305115 597.0000014305115 A 8 8 0 0 1 2572.0000014305115 605.0000014305115 L 2040.0000014305115 605.0000014305115 L 2040.0000014305115 605.0000014305115 A 8 8 0 0 1 2032.0000014305115 597.0000014305115 L 2032.0000014305115 535.0000014305115 L 2032.0000014305115 535.0000014305115 A 8 8 0 0 1 2040.0000014305115 527.0000014305115 L 2306.0000014305115 527.0000014305115 Z" fill-opacity="1" stroke-opacity="1" stroke-miterlimit="10" stroke-width="5"/><text fill="rgb(0,0,0)" stroke="none" font-family="Avenir, Helvetica, Arial, sans-serif" font-size="32px" font-style="normal" font-weight="bold" text-decoration="normal" x="2306.0000014305115" y="582.0000014305115" text-anchor="middle" dominant-baseline="text-after-edge" fill-opacity="1">organization_token_token</text><path fill="rgb(225,240,255)" stroke="rgb(29,122,218)" paint-order="fill stroke markers" d=" M 300 261 L 566 261 L 566 261 A 8 8 0 0 1 574 269 L 574 331 L 574 331 A 8 8 0 0 1 566 339 L 34 339 L 34 339 A 8 8 0 0 1 26 331 L 26 269 L 26 269 A 8 8 0 0 1 34 261 L 300 261 Z" fill-opacity="1" stroke-opacity="1" stroke-miterlimit="10" stroke-width="5"/><text fill="rgb(0,0,0)" stroke="none" font-family="Avenir, Helvetica, Arial, sans-serif" font-size="32px" font-style="normal" font-weight="bold" text-decoration="normal" x="300" y="316" text-anchor="middle" dominant-baseline="text-after-edge" fill-opacity="1">token</text><path fill="rgb(40,167,69)" stroke="none" paint-order="stroke fill markers" d=" M 1603.0000007152557 1360.0000021457672 L 1869.0000007152557 1360.0000021457672 L 1869.0000007152557 1360.0000021457672 A 8 8 0 0 1 1877.0000007152557 1368.0000021457672 L 1877.0000007152557 1430.0000021457672 L 1877.0000007152557 1430.0000021457672 A 8 8 0 0 1 1869.0000007152557 1438.0000021457672 L 1337.0000007152557 1438.0000021457672 L 1337.0000007152557 1438.0000021457672 A 8 8 0 0 1 1329.0000007152557 1430.0000021457672 L 1329.0000007152557 1368.0000021457672 L 1329.0000007152557 1368.0000021457672 A 8 8 0 0 1 1337.0000007152557 1360.0000021457672 L 1603.0000007152557 1360.0000021457672 Z" fill-opacity="1"/><text fill="rgb(255,255,255)" stroke="none" font-family="Avenir, Helvetica, Arial, sans-serif" font-size="32px" font-style="normal" font-weight="bold" text-decoration="normal" x="1603.0000007152557" y="1415.0000021457672" text-anchor="middle" dominant-baseline="text-after-edge" fill-opacity="1">default</text><path fill="rgb(40,167,69)" stroke="none" paint-order="stroke fill markers" d=" M 1603.0000007152557 1688.200002861023 L 1869.0000007152557 1688.200002861023 L 1869.0000007152557 1688.200002861023 A 8 8 0 0 1 1877.0000007152557 1696.200002861023 L 1877.0000007152557 1758.200002861023 L 1877.0000007152557 1758.200002861023 A 8 8 0 0 1 1869.0000007152557 1766.200002861023 L 1337.0000007152557 1766.200002861023 L 1337.0000007152557 1766.200002861023 A 8 8 0 0 1 1329.0000007152557 1758.200002861023 L 1329.0000007152557 1696.200002861023 L 1329.0000007152557 1696.200002861023 A 8 8 0 0 1 1337.0000007152557 1688.200002861023 L 1603.0000007152557 1688.200002861023 Z" fill-opacity="1"/><text fill="rgb(255,255,255)" stroke="none" font-family="Avenir, Helvetica, Arial, sans-serif" font-size="32px" font-style="normal" font-weight="bold" text-decoration="normal" x="1603.0000007152557" y="1743.200002861023" text-anchor="middle" dominant-baseline="text-after-edge" fill-opacity="1">default</text><path fill="rgb(255,247,224)" stroke="rgb(255,193,7)" paint-order="fill stroke markers" d=" M 500 1260.0000021457672 L 766 1260.0000021457672 L 766 1260.0000021457672 A 8 8 0 0 1 774 1268.0000021457672 L 774 1330.0000021457672 L 774 1330.0000021457672 A 8 8 0 0 1 766 1338.0000021457672 L 234 1338.0000021457672 L 234 1338.0000021457672 A 8 8 0 0 1 226 1330.0000021457672 L 226 1268.0000021457672 L 226 1268.0000021457672 A 8 8 0 0 1 234 1260.0000021457672 L 500 1260.0000021457672 Z" fill-opacity="1" stroke-opacity="1" stroke-miterlimit="10" stroke-width="5"/><text fill="rgb(0,0,0)" stroke="none" font-family="Avenir, Helvetica, Arial, sans-serif" font-size="32px" font-style="normal" font-weight="bold" text-decoration="normal" x="500" y="1315.0000021457672" text-anchor="middle" dominant-baseline="text-after-edge" fill-opacity="1">name</text><path fill="rgb(255,247,224)" stroke="rgb(255,193,7)" paint-order="fill stroke markers" d=" M 500 1393.000002861023 L 766 1393.000002861023 L 766 1393.000002861023 A 8 8 0 0 1 774 1401.000002861023 L 774 1463.000002861023 L 774 1463.000002861023 A 8 8 0 0 1 766 1471.000002861023 L 234 1471.000002861023 L 234 1471.000002861023 A 8 8 0 0 1 226 1463.000002861023 L 226 1401.000002861023 L 226 1401.000002861023 A 8 8 0 0 1 234 1393.000002861023 L 500 1393.000002861023 Z" fill-opacity="1" stroke-opacity="1" stroke-miterlimit="10" stroke-width="5"/><text fill="rgb(0,0,0)" stroke="none" font-family="Avenir, Helvetica, Arial, sans-serif" font-size="32px" font-style="normal" font-weight="bold" text-decoration="normal" x="500" y="1448.000002861023" text-anchor="middle" dominant-baseline="text-after-edge" fill-opacity="1">id</text><path fill="rgb(255,247,224)" stroke="rgb(255,193,7)" paint-order="fill stroke markers" d=" M 500 1526.0000035762787 L 766 1526.0000035762787 L 766 1526.0000035762787 A 8 8 0 0 1 774 1534.0000035762787 L 774 1596.0000035762787 L 774 1596.0000035762787 A 8 8 0 0 1 766 1604.0000035762787 L 234 1604.0000035762787 L 234 1604.0000035762787 A 8 8 0 0 1 226 1596.0000035762787 L 226 1534.0000035762787 L 226 1534.0000035762787 A 8 8 0 0 1 234 1526.0000035762787 L 500 1526.0000035762787 Z" fill-opacity="1" stroke-opacity="1" stroke-miterlimit="10" stroke-width="5"/><text fill="rgb(0,0,0)" stroke="none" font-family="Avenir, Helvetica, Arial, sans-serif" font-size="32px" font-style="normal" font-weight="bold" text-decoration="normal" x="500" y="1581.0000035762787" text-anchor="middle" dominant-baseline="text-after-edge" fill-opacity="1">token</text><path fill="rgb(225,240,255)" stroke="rgb(29,122,218)" paint-order="fill stroke markers" d=" M 500 3513.4000100135804 L 766 3513.4000100135804 L 766 3513.4000100135804 A 8 8 0 0 1 774 3521.4000100135804 L 774 3583.4000100135804 L 774 3583.4000100135804 A 8 8 0 0 1 766 3591.4000100135804 L 234 3591.4000100135804 L 234 3591.4000100135804 A 8 8 0 0 1 226 3583.4000100135804 L 226 3521.4000100135804 L 226 3521.4000100135804 A 8 8 0 0 1 234 3513.4000100135804 L 500 3513.4000100135804 Z" fill-opacity="1" stroke-opacity="1" stroke-miterlimit="10" stroke-width="5"/><text fill="rgb(0,0,0)" stroke="none" font-family="Avenir, Helvetica, Arial, sans-serif" font-size="32px" font-style="normal" font-weight="bold" text-decoration="normal" x="500" y="3568.4000100135804" text-anchor="middle" dominant-baseline="text-after-edge" fill-opacity="1">send_passing_statuses_for_untriggered_speculative_plans</text><path fill="rgb(225,240,255)" stroke="rgb(29,122,218)" paint-order="fill stroke markers" d=" M 500 2316.400003576279 L 766 2316.400003576279 L 766 2316.400003576279 A 8 8 0 0 1 774 2324.400003576279 L 774 2386.400003576279 L 774 2386.400003576279 A 8 8 0 0 1 766 2394.400003576279 L 234 2394.400003576279 L 234 2394.400003576279 A 8 8 0 0 1 226 2386.400003576279 L 226 2324.400003576279 L 226 2324.400003576279 A 8 8 0 0 1 234 2316.400003576279 L 500 2316.400003576279 Z" fill-opacity="1" stroke-opacity="1" stroke-miterlimit="10" stroke-width="5"/><text fill="rgb(0,0,0)" stroke="none" font-family="Avenir, Helvetica, Arial, sans-serif" font-size="32px" font-style="normal" font-weight="bold" text-decoration="normal" x="500" y="2371.400003576279" text-anchor="middle" dominant-baseline="text-after-edge" fill-opacity="1">name</text><path fill="rgb(225,240,255)" stroke="rgb(29,122,218)" paint-order="fill stroke markers" d=" M 500 2449.4000042915345 L 766 2449.4000042915345 L 766 2449.4000042915345 A 8 8 0 0 1 774 2457.4000042915345 L 774 2519.4000042915345 L 774 2519.4000042915345 A 8 8 0 0 1 766 2527.4000042915345 L 234 2527.4000042915345 L 234 2527.4000042915345 A 8 8 0 0 1 226 2519.4000042915345 L 226 2457.4000042915345 L 226 2457.4000042915345 A 8 8 0 0 1 234 2449.4000042915345 L 500 2449.4000042915345 Z" fill-opacity="1" stroke-opacity="1" stroke-miterlimit="10" stroke-width="5"/><text fill="rgb(0,0,0)" stroke="none" font-family="Avenir, Helvetica, Arial, sans-serif" font-size="32px" font-style="normal" font-weight="bold" text-decoration="normal" x="500" y="2504.4000042915345" text-anchor="middle" dominant-baseline="text-after-edge" fill-opacity="1">email</text><path fill="rgb(225,240,255)" stroke="rgb(29,122,218)" paint-order="fill stroke markers" d=" M 500 2582.4000050067903 L 766 2582.4000050067903 L 766 2582.4000050067903 A 8 8 0 0 1 774 2590.4000050067903 L 774 2652.4000050067903 L 774 2652.4000050067903 A 8 8 0 0 1 766 2660.4000050067903 L 234 2660.4000050067903 L 234 2660.4000050067903 A 8 8 0 0 1 226 2652.4000050067903 L 226 2590.4000050067903 L 226 2590.4000050067903 A 8 8 0 0 1 234 2582.4000050067903 L 500 2582.4000050067903 Z" fill-opacity="1" stroke-opacity="1" stroke-miterlimit="10" stroke-width="5"/><text fill="rgb(0,0,0)" stroke="none" font-family="Avenir, Helvetica, Arial, sans-serif" font-size="32px" font-style="normal" font-weight="bold" text-decoration="normal" x="500" y="2637.4000050067903" text-anchor="middle" dominant-baseline="text-after-edge" fill-opacity="1">cost_estimation_enabled</text><path fill="rgb(225,240,255)" stroke="rgb(29,122,218)" paint-order="fill stroke markers" d=" M 500 2715.400005722046 L 766 2715.400005722046 L 766 2715.400005722046 A 8 8 0 0 1 774 2723.400005722046 L 774 2785.400005722046 L 774 2785.400005722046 A 8 8 0 0 1 766 2793.400005722046 L 234 2793.400005722046 L 234 2793.400005722046 A 8 8 0 0 1 226 2785.400005722046 L 226 2723.400005722046 L 226 2723.400005722046 A 8 8 0 0 1 234 2715.400005722046 L 500 2715.400005722046 Z" fill-opacity="1" stroke-opacity="1" stroke-miterlimit="10" stroke-width="5"/><text fill="rgb(0,0,0)" stroke="none" font-family="Avenir, Helvetica, Arial, sans-serif" font-size="32px" font-style="normal" font-weight="bold" text-decoration="normal" x="500" y="2770.400005722046" text-anchor="middle" dominant-baseline="text-after-edge" fill-opacity="1">members</text><path fill="rgb(225,240,255)" stroke="rgb(29,122,218)" paint-order="fill stroke markers" d=" M 500 2848.4000064373017 L 766 2848.4000064373017 L 766 2848.4000064373017 A 8 8 0 0 1 774 2856.4000064373017 L 774 2918.4000064373017 L 774 2918.4000064373017 A 8 8 0 0 1 766 2926.4000064373017 L 234 2926.4000064373017 L 234 2926.4000064373017 A 8 8 0 0 1 226 2918.4000064373017 L 226 2856.4000064373017 L 226 2856.4000064373017 A 8 8 0 0 1 234 2848.4000064373017 L 500 2848.4000064373017 Z" fill-opacity="1" stroke-opacity="1" stroke-miterlimit="10" stroke-width="5"/><text fill="rgb(0,0,0)" stroke="none" font-family="Avenir, Helvetica, Arial, sans-serif" font-size="32px" font-style="normal" font-weight="bold" text-decoration="normal" x="500" y="2903.4000064373017" text-anchor="middle" dominant-baseline="text-after-edge" fill-opacity="1">session_timeout_minutes</text><path fill="rgb(225,240,255)" stroke="rgb(29,122,218)" paint-order="fill stroke markers" d=" M 500 2981.4000071525575 L 766 2981.4000071525575 L 766 2981.4000071525575 A 8 8 0 0 1 774 2989.4000071525575 L 774 3051.4000071525575 L 774 3051.4000071525575 A 8 8 0 0 1 766 3059.4000071525575 L 234 3059.4000071525575 L 234 3059.4000071525575 A 8 8 0 0 1 226 3051.4000071525575 L 226 2989.4000071525575 L 226 2989.4000071525575 A 8 8 0 0 1 234 2981.4000071525575 L 500 2981.4000071525575 Z" fill-opacity="1" stroke-opacity="1" stroke-miterlimit="10" stroke-width="5"/><text fill="rgb(0,0,0)" stroke="none" font-family="Avenir, Helvetica, Arial, sans-serif" font-size="32px" font-style="normal" font-weight="bold" text-decoration="normal" x="500" y="3036.4000071525575" text-anchor="middle" dominant-baseline="text-after-edge" fill-opacity="1">collaborator_auth_policy</text><path fill="rgb(225,240,255)" stroke="rgb(29,122,218)" paint-order="fill stroke markers" d=" M 500 3114.400007867813 L 766 3114.400007867813 L 766 3114.400007867813 A 8 8 0 0 1 774 3122.400007867813 L 774 3184.400007867813 L 774 3184.400007867813 A 8 8 0 0 1 766 3192.400007867813 L 234 3192.400007867813 L 234 3192.400007867813 A 8 8 0 0 1 226 3184.400007867813 L 226 3122.400007867813 L 226 3122.400007867813 A 8 8 0 0 1 234 3114.400007867813 L 500 3114.400007867813 Z" fill-opacity="1" stroke-opacity="1" stroke-miterlimit="10" stroke-width="5"/><text fill="rgb(0,0,0)" stroke="none" font-family="Avenir, Helvetica, Arial, sans-serif" font-size="32px" font-style="normal" font-weight="bold" text-decoration="normal" x="500" y="3169.400007867813" text-anchor="middle" dominant-baseline="text-after-edge" fill-opacity="1">owners_team_saml_role_id</text><path fill="rgb(225,240,255)" stroke="rgb(29,122,218)" paint-order="fill stroke markers" d=" M 500 3247.400008583069 L 766 3247.400008583069 L 766 3247.400008583069 A 8 8 0 0 1 774 3255.400008583069 L 774 3317.400008583069 L 774 3317.400008583069 A 8 8 0 0 1 766 3325.400008583069 L 234 3325.400008583069 L 234 3325.400008583069 A 8 8 0 0 1 226 3317.400008583069 L 226 3255.400008583069 L 226 3255.400008583069 A 8 8 0 0 1 234 3247.400008583069 L 500 3247.400008583069 Z" fill-opacity="1" stroke-opacity="1" stroke-miterlimit="10" stroke-width="5"/><text fill="rgb(0,0,0)" stroke="none" font-family="Avenir, Helvetica, Arial, sans-serif" font-size="32px" font-style="normal" font-weight="bold" text-decoration="normal" x="500" y="3302.400008583069" text-anchor="middle" dominant-baseline="text-after-edge" fill-opacity="1">force_regenerate</text><path fill="rgb(225,240,255)" stroke="rgb(29,122,218)" paint-order="fill stroke markers" d=" M 500 3380.4000092983247 L 766 3380.4000092983247 L 766 3380.4000092983247 A 8 8 0 0 1 774 3388.4000092983247 L 774 3450.4000092983247 L 774 3450.4000092983247 A 8 8 0 0 1 766 3458.4000092983247 L 234 3458.4000092983247 L 234 3458.4000092983247 A 8 8 0 0 1 226 3450.4000092983247 L 226 3388.4000092983247 L 226 3388.4000092983247 A 8 8 0 0 1 234 3380.4000092983247 L 500 3380.4000092983247 Z" fill-opacity="1" stroke-opacity="1" stroke-miterlimit="10" stroke-width="5"/><text fill="rgb(0,0,0)" stroke="none" font-family="Avenir, Helvetica, Arial, sans-serif" font-size="32px" font-style="normal" font-weight="bold" text-decoration="normal" x="500" y="3435.4000092983247" text-anchor="middle" dominant-baseline="text-after-edge" fill-opacity="1">session_remember_minutes</text><path fill="rgb(0,0,0)" stroke="rgb(0,0,0)" paint-order="fill stroke markers" d=" M 1303.0000007152557 261 L 1569.0000007152557 261 L 1569.0000007152557 261 A 8 8 0 0 1 1577.0000007152557 269 L 1577.0000007152557 331 L 1577.0000007152557 331 A 8 8 0 0 1 1569.0000007152557 339 L 1037.0000007152557 339 L 1037.0000007152557 339 A 8 8 0 0 1 1029.0000007152557 331 L 1029.0000007152557 269 L 1029.0000007152557 269 A 8 8 0 0 1 1037.0000007152557 261 L 1303.0000007152557 261 Z" fill-opacity="1" stroke-opacity="1" stroke-miterlimit="10" stroke-width="5"/><text fill="rgb(255,255,255)" stroke="none" font-family="Avenir, Helvetica, Arial, sans-serif" font-size="32px" font-style="normal" font-weight="bold" text-decoration="normal" x="1303.0000007152557" y="316" text-anchor="middle" dominant-baseline="text-after-edge" fill-opacity="1">organization_name</text><path fill="rgb(0,0,0)" stroke="rgb(0,0,0)" paint-order="fill stroke markers" d=" M 1303.0000007152557 394.00000071525574 L 1569.0000007152557 394.00000071525574 L 1569.0000007152557 394.00000071525574 A 8 8 0 0 1 1577.0000007152557 402.00000071525574 L 1577.0000007152557 464.00000071525574 L 1577.0000007152557 464.00000071525574 A 8 8 0 0 1 1569.0000007152557 472.00000071525574 L 1037.0000007152557 472.00000071525574 L 1037.0000007152557 472.00000071525574 A 8 8 0 0 1 1029.0000007152557 464.00000071525574 L 1029.0000007152557 402.00000071525574 L 1029.0000007152557 402.00000071525574 A 8 8 0 0 1 1037.0000007152557 394.00000071525574 L 1303.0000007152557 394.00000071525574 Z" fill-opacity="1" stroke-opacity="1" stroke-miterlimit="10" stroke-width="5"/><text fill="rgb(255,255,255)" stroke="none" font-family="Avenir, Helvetica, Arial, sans-serif" font-size="32px" font-style="normal" font-weight="bold" text-decoration="normal" x="1303.0000007152557" y="449.00000071525574" text-anchor="middle" dominant-baseline="text-after-edge" fill-opacity="1">organization_email</text><g transform="scale(5,5) translate(-89.10000000000001,-9.200000000000001)"/></g></svg>